<!-- <svg width="47" height="47" viewBox="0 0 47 47" fill="none" xmlns="http://www.w3.org/2000/svg">
<path fill-rule="evenodd" clip-rule="evenodd" d="M46.4784 23.2392C46.4784 36.0738 36.0738 46.4784 23.2392 46.4784C10.4045 46.4784 0 36.0738 0 23.2392C0 10.4045 10.4045 0 23.2392 0C36.0738 0 46.4784 10.4045 46.4784 23.2392ZM28.6481 14.5899C31.8174 15.6821 34.1369 17.319 33.6809 20.3634C33.3512 22.5929 32.1166 23.672 30.4753 24.0497C32.7281 25.2218 33.8741 27.0214 32.7818 30.1384C31.4267 34.0106 28.208 34.3374 23.9262 33.5269L22.8877 37.6896L20.3779 37.0651L21.4033 32.9576C20.7526 32.7949 20.0874 32.6235 19.4018 32.439L18.3735 36.564L15.8651 35.9394L16.9036 31.768C16.6567 31.7049 16.4079 31.64 16.1573 31.5745C15.8138 31.4849 15.4667 31.3943 15.1157 31.3061L11.8477 30.4913L13.0939 27.6184C13.0939 27.6184 14.9443 28.1093 14.9181 28.073C15.6298 28.2487 15.945 27.7854 16.0699 27.4775L17.7112 20.895L17.977 20.9603C17.8753 20.9211 17.7853 20.895 17.7156 20.8775L18.8862 16.1789C18.9167 15.6444 18.7337 14.9719 17.717 14.7177C17.7562 14.6916 15.8927 14.2645 15.8927 14.2645L16.5609 11.5833L20.0235 12.4475L20.0206 12.4606C20.5057 12.5825 21.006 12.6969 21.5143 12.8131C21.5509 12.8215 21.5875 12.8298 21.6241 12.8382L22.6524 8.71472L25.1623 9.34073L24.1528 13.3829L24.1948 13.3925C24.8563 13.5432 25.5187 13.6942 26.1645 13.8564L27.1666 9.84037L29.6765 10.4649L28.6481 14.5899ZM20.707 29.5438C22.7563 30.0851 27.2335 31.2677 27.9437 28.407C28.6738 25.4842 24.3353 24.5095 22.2156 24.0333C21.9779 23.9799 21.7681 23.9328 21.5965 23.8899L20.2167 29.4165C20.3574 29.4514 20.5223 29.495 20.707 29.5438ZM22.6412 21.4679C24.3489 21.9238 28.0725 22.918 28.7208 20.3183C29.3839 17.6594 25.7641 16.8587 23.996 16.4675C23.7967 16.4234 23.6209 16.3846 23.4774 16.3488L22.2283 21.3597C22.3466 21.3892 22.4856 21.4263 22.6412 21.4679Z" fill="#00CE08"/>
</svg> -->
<svg width="104" height="47" viewBox="0 0 104 47" fill="none" xmlns="http://www.w3.org/2000/svg">
<path fill-rule="evenodd" clip-rule="evenodd" d="M46.4784 23.2392C46.4784 36.0738 36.0738 46.4784 23.2392 46.4784C10.4045 46.4784 0 36.0738 0 23.2392C0 10.4045 10.4045 0 23.2392 0C36.0738 0 46.4784 10.4045 46.4784 23.2392ZM28.6481 14.5899C31.8174 15.6821 34.1369 17.319 33.6809 20.3634C33.3512 22.5929 32.1166 23.672 30.4753 24.0497C32.7281 25.2218 33.8741 27.0214 32.7818 30.1384C31.4267 34.0106 28.208 34.3374 23.9262 33.5269L22.8877 37.6896L20.3779 37.0651L21.4033 32.9576C20.7526 32.7949 20.0874 32.6235 19.4018 32.439L18.3735 36.564L15.8651 35.9394L16.9036 31.768C16.6567 31.7049 16.4079 31.64 16.1573 31.5745C15.8138 31.4849 15.4667 31.3943 15.1157 31.3061L11.8477 30.4913L13.0939 27.6184C13.0939 27.6184 14.9443 28.1093 14.9181 28.073C15.6298 28.2487 15.945 27.7854 16.0699 27.4775L17.7112 20.895L17.977 20.9603C17.8753 20.9211 17.7853 20.895 17.7156 20.8775L18.8862 16.1789C18.9167 15.6444 18.7337 14.9719 17.717 14.7177C17.7562 14.6916 15.8927 14.2645 15.8927 14.2645L16.5609 11.5833L20.0235 12.4475L20.0206 12.4606C20.5057 12.5825 21.006 12.6969 21.5143 12.8131C21.5509 12.8215 21.5875 12.8298 21.6241 12.8382L22.6524 8.71472L25.1623 9.34073L24.1528 13.3829L24.1948 13.3925C24.8563 13.5432 25.5187 13.6942 26.1645 13.8564L27.1666 9.84037L29.6765 10.4649L28.6481 14.5899ZM20.707 29.5438C22.7563 30.0851 27.2335 31.2677 27.9437 28.407C28.6738 25.4842 24.3353 24.5095 22.2156 24.0333C21.9779 23.9799 21.7681 23.9328 21.5965 23.8899L20.2167 29.4165C20.3574 29.4514 20.5223 29.495 20.707 29.5438ZM22.6412 21.4679C24.3489 21.9238 28.0725 22.918 28.7208 20.3183C29.3839 17.6594 25.7641 16.8587 23.996 16.4675C23.7967 16.4234 23.6209 16.3846 23.4774 16.3488L22.2283 21.3597C22.3466 21.3892 22.4856 21.4263 22.6412 21.4679Z" fill="#00CE08"/>
<path d="M62.1788 41V31.5455H65.6412C66.3121 31.5455 66.8676 31.6562 67.3078 31.8778C67.7479 32.0964 68.0772 32.3933 68.2957 32.7688C68.5142 33.1412 68.6234 33.5613 68.6234 34.0291C68.6234 34.4231 68.5511 34.7554 68.4065 35.0263C68.2618 35.294 68.0679 35.5095 67.8248 35.6726C67.5847 35.8326 67.3201 35.9496 67.0308 36.0234V36.1158C67.3447 36.1312 67.6509 36.2327 67.9494 36.4205C68.2511 36.6051 68.5003 36.8683 68.6973 37.2099C68.8943 37.5515 68.9928 37.967 68.9928 38.4563C68.9928 38.9395 68.8789 39.3735 68.6511 39.7582C68.4265 40.1398 68.0787 40.4429 67.6078 40.6676C67.1369 40.8892 66.5353 41 65.8028 41H62.1788ZM63.6053 39.7766H65.6643C66.3475 39.7766 66.8369 39.6443 67.1323 39.3796C67.4278 39.1149 67.5755 38.7841 67.5755 38.3871C67.5755 38.0885 67.5001 37.8146 67.3493 37.5653C67.1985 37.3161 66.9831 37.1175 66.703 36.9698C66.426 36.8221 66.0967 36.7482 65.7151 36.7482H63.6053V39.7766ZM63.6053 35.6357H65.5166C65.8366 35.6357 66.1244 35.5741 66.3798 35.451C66.6384 35.3279 66.843 35.1555 66.9938 34.9339C67.1477 34.7093 67.2247 34.4446 67.2247 34.1399C67.2247 33.7491 67.0877 33.4213 66.8138 33.1566C66.5399 32.8919 66.1198 32.7596 65.5535 32.7596H63.6053V35.6357ZM70.5739 41V33.9091H71.9542V41H70.5739ZM71.271 32.815C71.0309 32.815 70.8247 32.735 70.6524 32.5749C70.4831 32.4118 70.3985 32.2179 70.3985 31.9933C70.3985 31.7655 70.4831 31.5716 70.6524 31.4116C70.8247 31.2485 71.0309 31.1669 71.271 31.1669C71.5111 31.1669 71.7157 31.2485 71.885 31.4116C72.0573 31.5716 72.1435 31.7655 72.1435 31.9933C72.1435 32.2179 72.0573 32.4118 71.885 32.5749C71.7157 32.735 71.5111 32.815 71.271 32.815ZM77.1212 33.9091V35.017H73.248V33.9091H77.1212ZM74.2867 32.2102H75.667V38.918C75.667 39.1857 75.707 39.3873 75.7871 39.5227C75.8671 39.6551 75.9702 39.7459 76.0964 39.7951C76.2256 39.8413 76.3657 39.8643 76.5165 39.8643C76.6273 39.8643 76.7242 39.8567 76.8073 39.8413C76.8904 39.8259 76.955 39.8136 77.0012 39.8043L77.2505 40.9446C77.1705 40.9754 77.0566 41.0062 76.9089 41.0369C76.7611 41.0708 76.5765 41.0893 76.3549 41.0923C75.9917 41.0985 75.6532 41.0339 75.3393 40.8984C75.0253 40.763 74.7714 40.5537 74.5775 40.2706C74.3837 39.9875 74.2867 39.632 74.2867 39.2042V32.2102ZM81.5588 41.1431C80.8725 41.1431 80.2816 40.9877 79.7861 40.6768C79.2937 40.3629 78.9151 39.9305 78.6504 39.3796C78.3858 38.8287 78.2534 38.1978 78.2534 37.4869C78.2534 36.7667 78.3888 36.1312 78.6597 35.5803C78.9305 35.0263 79.3121 34.5939 79.8046 34.283C80.297 33.9722 80.8771 33.8168 81.545 33.8168C82.0836 33.8168 82.5637 33.9168 82.9853 34.1168C83.4069 34.3138 83.747 34.5908 84.0055 34.9478C84.2671 35.3048 84.4226 35.7218 84.4718 36.1989H83.1284C83.0546 35.8665 82.8853 35.5803 82.6206 35.3402C82.359 35.1001 82.0082 34.9801 81.568 34.9801C81.1833 34.9801 80.8463 35.0817 80.557 35.2848C80.2708 35.4848 80.0477 35.7711 79.8877 36.1435C79.7276 36.5128 79.6476 36.9498 79.6476 37.4545C79.6476 37.9716 79.7261 38.4179 79.883 38.7933C80.04 39.1688 80.2616 39.4596 80.5478 39.6658C80.8371 39.872 81.1772 39.9751 81.568 39.9751C81.8296 39.9751 82.0666 39.9274 82.279 39.832C82.4944 39.7335 82.6745 39.5935 82.8191 39.4119C82.9668 39.2304 83.0699 39.0118 83.1284 38.7564H84.4718C84.4226 39.215 84.2733 39.6243 84.024 39.9844C83.7747 40.3445 83.4408 40.6276 83.0222 40.8338C82.6068 41.04 82.1189 41.1431 81.5588 41.1431ZM88.9348 41.1431C88.27 41.1431 87.6899 40.9908 87.1944 40.6861C86.6989 40.3814 86.3142 39.9551 86.0403 39.4073C85.7664 38.8595 85.6294 38.2193 85.6294 37.4869C85.6294 36.7513 85.7664 36.1081 86.0403 35.5572C86.3142 35.0063 86.6989 34.5785 87.1944 34.2738C87.6899 33.9691 88.27 33.8168 88.9348 33.8168C89.5996 33.8168 90.1797 33.9691 90.6752 34.2738C91.1707 34.5785 91.5554 35.0063 91.8293 35.5572C92.1032 36.1081 92.2402 36.7513 92.2402 37.4869C92.2402 38.2193 92.1032 38.8595 91.8293 39.4073C91.5554 39.9551 91.1707 40.3814 90.6752 40.6861C90.1797 40.9908 89.5996 41.1431 88.9348 41.1431ZM88.9394 39.9844C89.3703 39.9844 89.7273 39.8705 90.0104 39.6428C90.2936 39.415 90.5029 39.1119 90.6383 38.7333C90.7768 38.3548 90.846 37.9377 90.846 37.4822C90.846 37.0298 90.7768 36.6143 90.6383 36.2358C90.5029 35.8542 90.2936 35.5479 90.0104 35.3171C89.7273 35.0863 89.3703 34.9709 88.9394 34.9709C88.5055 34.9709 88.1454 35.0863 87.8592 35.3171C87.576 35.5479 87.3652 35.8542 87.2267 36.2358C87.0913 36.6143 87.0236 37.0298 87.0236 37.4822C87.0236 37.9377 87.0913 38.3548 87.2267 38.7333C87.3652 39.1119 87.576 39.415 87.8592 39.6428C88.1454 39.8705 88.5055 39.9844 88.9394 39.9844ZM93.7809 41V33.9091H95.1613V41H93.7809ZM94.478 32.815C94.238 32.815 94.0318 32.735 93.8594 32.5749C93.6901 32.4118 93.6055 32.2179 93.6055 31.9933C93.6055 31.7655 93.6901 31.5716 93.8594 31.4116C94.0318 31.2485 94.238 31.1669 94.478 31.1669C94.7181 31.1669 94.9227 31.2485 95.092 31.4116C95.2644 31.5716 95.3505 31.7655 95.3505 31.9933C95.3505 32.2179 95.2644 32.4118 95.092 32.5749C94.9227 32.735 94.7181 32.815 94.478 32.815ZM98.3986 36.7898V41H97.0182V33.9091H98.3432V35.0632H98.4309C98.594 34.6877 98.8494 34.3861 99.1972 34.1584C99.5481 33.9306 99.9897 33.8168 100.522 33.8168C101.005 33.8168 101.429 33.9183 101.792 34.1214C102.155 34.3215 102.436 34.62 102.636 35.017C102.837 35.4141 102.937 35.9049 102.937 36.4897V41H101.556V36.6559C101.556 36.1419 101.422 35.7403 101.155 35.451C100.887 35.1586 100.519 35.0124 100.051 35.0124C99.7312 35.0124 99.4465 35.0817 99.1972 35.2202C98.951 35.3587 98.7556 35.5618 98.6109 35.8295C98.4694 36.0942 98.3986 36.4143 98.3986 36.7898Z" fill="black"/>
<path d="M62.2071 20V6.90909H67.4486C68.4117 6.90909 69.2149 7.05185 69.8584 7.33736C70.5019 7.62287 70.9855 8.01918 71.3094 8.52628C71.6333 9.02912 71.7952 9.60866 71.7952 10.2649C71.7952 10.7763 71.6929 11.2259 71.4884 11.6136C71.2838 11.9972 71.0026 12.3125 70.6446 12.5597C70.2909 12.8026 69.8861 12.9751 69.4301 13.0774V13.2053C69.9287 13.2266 70.3953 13.3672 70.83 13.6271C71.2689 13.8871 71.6247 14.2514 71.8975 14.7202C72.1702 15.1847 72.3066 15.7386 72.3066 16.3821C72.3066 17.0767 72.134 17.6967 71.7888 18.2422C71.4479 18.7834 70.9429 19.2116 70.2739 19.527C69.6048 19.8423 68.7803 20 67.8002 20H62.2071ZM64.9749 17.7372H67.2313C68.0026 17.7372 68.5651 17.5902 68.9188 17.2962C69.2725 16.9979 69.4493 16.6016 69.4493 16.1072C69.4493 15.745 69.3619 15.4254 69.1872 15.1484C69.0125 14.8714 68.7632 14.6541 68.4394 14.4964C68.1198 14.3388 67.7384 14.2599 67.2952 14.2599H64.9749V17.7372ZM64.9749 12.3871H67.0267C67.406 12.3871 67.7426 12.321 68.0367 12.1889C68.335 12.0526 68.5693 11.8608 68.7398 11.6136C68.9145 11.3665 69.0019 11.0703 69.0019 10.7251C69.0019 10.2521 68.8335 9.87074 68.4969 9.58097C68.1645 9.29119 67.6915 9.14631 67.0779 9.14631H64.9749V12.3871ZM73.6089 9.19105V6.90909H84.3604V9.19105H80.3525V20H77.6167V9.19105H73.6089ZM97.0837 11.4922H94.284C94.2329 11.13 94.1285 10.8082 93.9708 10.527C93.8131 10.2415 93.6107 9.99858 93.3635 9.7983C93.1164 9.59801 92.8309 9.4446 92.507 9.33807C92.1874 9.23153 91.8401 9.17827 91.4651 9.17827C90.7876 9.17827 90.1974 9.34659 89.6945 9.68324C89.1917 10.0156 88.8018 10.5014 88.5248 11.1406C88.2478 11.7756 88.1093 12.5469 88.1093 13.4545C88.1093 14.3878 88.2478 15.1719 88.5248 15.8068C88.806 16.4418 89.1981 16.9212 89.7009 17.245C90.2037 17.5689 90.7854 17.7308 91.4459 17.7308C91.8167 17.7308 92.1597 17.6818 92.4751 17.5838C92.7947 17.4858 93.078 17.343 93.3252 17.1555C93.5724 16.9638 93.7769 16.7315 93.9388 16.4588C94.105 16.1861 94.2201 15.875 94.284 15.5256L97.0837 15.5384C97.0113 16.1392 96.8302 16.7188 96.5404 17.277C96.2549 17.831 95.8692 18.3274 95.3834 18.7663C94.9019 19.201 94.3266 19.5462 93.6576 19.8018C92.9928 20.0533 92.2407 20.179 91.4012 20.179C90.2336 20.179 89.1895 19.9148 88.2691 19.3864C87.3529 18.858 86.6285 18.093 86.0958 17.0916C85.5674 16.0902 85.3032 14.8778 85.3032 13.4545C85.3032 12.027 85.5716 10.8125 86.1086 9.81108C86.6455 8.80966 87.3742 8.04687 88.2947 7.52273C89.2151 6.99432 90.2506 6.73011 91.4012 6.73011C92.1597 6.73011 92.8628 6.83665 93.5106 7.04972C94.1626 7.26278 94.74 7.57386 95.2428 7.98295C95.7457 8.38778 96.1547 8.88423 96.4701 9.4723C96.7897 10.0604 96.9942 10.7337 97.0837 11.4922Z" fill="black"/>
</svg>
