<svg fill="#b5b5b5" height="200px" width="200px" version="1.1" id="Layer_1" xmlns="http://www.w3.org/2000/svg" xmlns:xlink="http://www.w3.org/1999/xlink" viewBox="0 0 512 512" xml:space="preserve" stroke="#b5b5b5"><g id="SVGRepo_bgCarrier" stroke-width="0"></g><g id="SVGRepo_tracerCarrier" stroke-linecap="round" stroke-linejoin="round"></g><g id="SVGRepo_iconCarrier"> <g> <g> <g> <path d="M256,0C114.617,0,0,114.617,0,256s114.617,256,256,256s256-114.617,256-256S397.383,0,256,0z M256,494.933 C124.043,494.933,17.067,387.957,17.067,256S124.043,17.067,256,17.067S494.933,124.043,494.933,256S387.957,494.933,256,494.933 z"></path> <path d="M372.524,298.667H139.546c-16.185,0-25.605,18.117-16.543,31.481c16.176,23.88,37.938,42.661,63.066,54.886 c0.037,0.018,0.074,0.035,0.111,0.053c1.515,0.735,3.041,1.446,4.58,2.133c0.262,0.117,0.525,0.233,0.788,0.349 c1.319,0.58,2.645,1.143,3.981,1.688c0.388,0.159,0.775,0.317,1.164,0.473c1.23,0.491,2.469,0.963,3.712,1.423 c0.451,0.167,0.9,0.338,1.352,0.501c1.234,0.444,2.476,0.866,3.722,1.28c0.442,0.147,0.88,0.302,1.323,0.445 c1.535,0.494,3.079,0.965,4.632,1.414c0.14,0.041,0.279,0.087,0.419,0.127c1.657,0.473,3.325,0.917,5.001,1.337 c0.639,0.16,1.283,0.302,1.925,0.455c1.055,0.251,2.11,0.501,3.172,0.73c0.735,0.159,1.473,0.302,2.211,0.451 c0.987,0.199,1.974,0.394,2.966,0.575c0.753,0.137,1.509,0.263,2.265,0.389c0.999,0.167,2.001,0.326,3.005,0.474 c0.739,0.109,1.479,0.213,2.221,0.311c1.052,0.14,2.107,0.267,3.164,0.386c0.696,0.078,1.392,0.158,2.09,0.227 c1.154,0.115,2.312,0.211,3.471,0.302c0.607,0.047,1.212,0.101,1.821,0.141c1.382,0.092,2.77,0.159,4.16,0.216 c0.392,0.016,0.783,0.041,1.175,0.055c1.824,0.061,3.654,0.098,5.491,0.098c1.838,0,3.669-0.037,5.495-0.098 c0.369-0.012,0.735-0.036,1.103-0.051c1.418-0.057,2.833-0.127,4.243-0.221c0.583-0.039,1.162-0.09,1.744-0.135 c1.19-0.092,2.378-0.191,3.562-0.31c0.671-0.067,1.339-0.143,2.009-0.219c1.088-0.122,2.174-0.253,3.256-0.398 c0.714-0.095,1.427-0.195,2.139-0.3c1.038-0.153,2.073-0.317,3.105-0.49c0.724-0.121,1.448-0.242,2.169-0.373 c1.035-0.188,2.065-0.392,3.093-0.599c0.698-0.141,1.396-0.277,2.091-0.427c1.12-0.242,2.233-0.505,3.345-0.77 c0.586-0.14,1.174-0.269,1.758-0.416c3.413-0.855,6.787-1.823,10.118-2.897c0.375-0.121,0.746-0.253,1.12-0.377 c1.316-0.435,2.627-0.882,3.929-1.351c0.408-0.147,0.812-0.302,1.219-0.452c1.29-0.477,2.574-0.967,3.85-1.476 c0.353-0.141,0.704-0.286,1.056-0.429c1.373-0.56,2.737-1.138,4.093-1.735c0.231-0.102,0.461-0.203,0.691-0.306 c1.57-0.701,3.129-1.426,4.674-2.177c0.009-0.004,0.018-0.009,0.027-0.013c25.169-12.239,46.965-31.054,63.157-54.983 C398.056,316.722,388.669,298.667,372.524,298.667z M217.25,378.698c-0.24-0.067-0.482-0.127-0.722-0.195 c-0.856-0.245-1.704-0.512-2.554-0.772c-0.562-0.172-1.127-0.334-1.686-0.513c-0.541-0.173-1.074-0.363-1.612-0.542 c-0.869-0.29-1.741-0.575-2.604-0.882c-0.245-0.087-0.486-0.182-0.73-0.271c-6.662-2.411-13.136-5.314-19.377-8.705 c7.928-10.419,20.331-16.818,33.89-16.818c10.628,0,20.627,3.928,28.434,10.933c3.242,2.91,8.156,2.91,11.398,0 c7.807-7.005,17.806-10.933,28.434-10.933c13.559,0,25.962,6.399,33.89,16.818c-6.409,3.483-13.063,6.458-19.915,8.907 c-0.046,0.016-0.091,0.035-0.138,0.051c-1.066,0.38-2.14,0.735-3.215,1.089c-0.335,0.11-0.666,0.23-1.002,0.337 c-0.774,0.248-1.555,0.475-2.334,0.71c-0.636,0.192-1.268,0.394-1.907,0.577c-0.466,0.134-0.937,0.251-1.405,0.38 c-0.952,0.262-1.903,0.528-2.862,0.77c-0.14,0.035-0.281,0.065-0.421,0.1c-4.115,1.027-8.291,1.879-12.523,2.539 c-0.047,0.007-0.094,0.012-0.14,0.02c-1.403,0.217-2.812,0.416-4.226,0.592c-5.896,0.733-11.881,1.106-17.933,1.106 c-6.041,0-12.015-0.372-17.901-1.102C230.985,382.011,224.027,380.597,217.25,378.698z M374.9,320.504 c-9.975,14.741-22.308,27.308-36.357,37.279c-11.036-15.341-28.87-24.849-48.422-24.849c-12.409,0-24.23,3.832-34.133,10.77 c-9.904-6.938-21.724-10.77-34.133-10.77c-19.551,0-37.384,9.508-48.42,24.847c-14.024-9.955-26.338-22.496-36.304-37.207 c-1.424-2.099,0.001-4.84,2.416-4.84h232.977C374.902,315.733,376.303,318.428,374.9,320.504z"></path> <path d="M162.133,204.8c-9.427,0-17.067-7.64-17.067-17.067c0-4.713-3.82-8.533-8.533-8.533s-8.533,3.82-8.533,8.533 c0,15.906,10.877,29.269,25.6,33.058v9.609c0,4.713,3.82,8.533,8.533,8.533s8.533-3.82,8.533-8.533v-9.609 c14.723-3.789,25.6-17.152,25.6-33.058c0-18.853-15.281-34.133-34.133-34.133c-9.427,0-17.067-7.64-17.067-17.067 c0-9.427,7.64-17.067,17.067-17.067c9.427,0,17.067,7.64,17.067,17.067c0,4.713,3.82,8.533,8.533,8.533s8.533-3.82,8.533-8.533 c0-15.906-10.877-29.269-25.6-33.058v-9.609c0-4.713-3.82-8.533-8.533-8.533s-8.533,3.821-8.533,8.533v9.609 c-14.723,3.789-25.6,17.152-25.6,33.058c0,18.853,15.281,34.133,34.133,34.133c9.427,0,17.067,7.64,17.067,17.067 C179.2,197.16,171.56,204.8,162.133,204.8z"></path> <path d="M349.867,204.8c-9.427,0-17.067-7.64-17.067-17.067c0-4.713-3.82-8.533-8.533-8.533s-8.533,3.82-8.533,8.533 c0,15.906,10.877,29.269,25.6,33.058v9.609c0,4.713,3.82,8.533,8.533,8.533s8.533-3.82,8.533-8.533v-9.609 c14.723-3.789,25.6-17.152,25.6-33.058c0-18.853-15.281-34.133-34.133-34.133c-9.427,0-17.067-7.64-17.067-17.067 c0-9.427,7.64-17.067,17.067-17.067s17.067,7.64,17.067,17.067c0,4.713,3.82,8.533,8.533,8.533s8.533-3.82,8.533-8.533 c0-15.906-10.877-29.269-25.6-33.058v-9.609c0-4.713-3.82-8.533-8.533-8.533s-8.533,3.821-8.533,8.533v9.609 c-14.723,3.789-25.6,17.152-25.6,33.058c0,18.853,15.281,34.133,34.133,34.133c9.427,0,17.067,7.64,17.067,17.067 C366.933,197.16,359.294,204.8,349.867,204.8z"></path> </g> </g> </g> </g></svg>