<svg version="1.1" id="Layer_1" xmlns="http://www.w3.org/2000/svg" xmlns:xlink="http://www.w3.org/1999/xlink" x="0px" y="0px"
	 width="100%" viewBox="0 0 274 260" enable-background="new 0 0 274 260" xml:space="preserve">
<path fill="#FEFD53" opacity="1.000000" stroke="none" 
	d="
M153.000000,1.000001 
	C155.041672,1.000000 157.083328,1.000000 159.061722,1.231204 
	C159.607498,1.996598 160.151215,2.888105 160.835068,3.013113 
	C182.082352,6.897096 200.953720,15.983782 218.223831,29.261276 
	C220.356018,31.195965 222.322861,32.848381 224.324066,34.578140 
	C224.358444,34.655487 224.520279,34.705128 224.703995,34.962669 
	C227.583191,37.835899 230.278671,40.451591 233.034882,43.305504 
	C233.282578,43.848324 233.554413,44.011967 234.030670,44.353226 
	C240.360046,53.811565 246.569855,62.951328 252.846634,72.450974 
	C265.011261,96.316849 267.750610,121.639763 264.557495,147.197891 
	C260.052338,183.257370 242.162125,212.216003 212.879684,233.882111 
	C194.181427,247.716949 172.891769,255.036377 149.553619,257.939209 
	C139.466949,257.471344 129.695175,258.069489 120.209625,256.693909 
	C49.961773,246.506485 -4.321546,179.112961 14.876499,99.184097 
	C27.673763,45.904160 63.397659,13.960856 117.339027,2.890185 
	C118.314247,2.690034 119.116852,1.648793 120.000000,1.000002 
	C130.020889,1.000000 140.041794,1.000000 150.641541,1.332409 
	C151.813614,1.443213 152.406799,1.221607 153.000000,1.000001 
M93.583336,72.021072 
	C94.107971,71.743782 94.632614,71.466492 95.820282,71.016106 
	C97.957375,70.329155 100.094475,69.642204 101.797340,69.419426 
	C101.787560,70.558090 101.531097,72.617203 101.806686,72.691055 
	C104.196571,73.331551 106.682037,73.615395 108.949043,74.676674 
	C106.178604,77.006691 103.408173,79.336716 100.637733,81.666733 
	C100.332039,81.275642 100.026344,80.884552 99.720650,80.493462 
	C100.290962,79.456917 100.861275,78.420372 101.431587,77.383835 
	C101.084312,77.021103 100.737045,76.658371 100.389778,76.295647 
	C97.621811,78.534134 94.853844,80.772629 91.730774,83.641731 
	C90.311096,85.465050 88.908005,87.301628 87.466225,89.107292 
	C86.408058,90.432510 85.299171,91.717224 83.721336,93.591011 
	C82.843582,97.062012 81.965836,100.533005 80.687157,104.544579 
	C78.221985,107.035507 75.756813,109.526428 72.973465,112.664253 
	C74.004341,116.777756 75.035217,120.891266 75.757668,125.656883 
	C71.862610,129.259567 72.209404,124.906792 71.914490,123.315681 
	C71.049973,118.651482 68.517677,117.221207 64.132805,118.422546 
	C60.759251,119.346802 57.378262,120.243889 53.348743,121.067780 
	C52.911098,121.090004 52.473457,121.112221 51.927338,120.410866 
	C49.593906,118.064285 47.260475,115.717705 44.927040,113.371109 
	C42.613941,115.760544 40.241463,118.096848 38.025578,120.573273 
	C37.398079,121.274567 37.285061,122.413788 36.837490,123.302521 
	C35.194153,126.565659 33.509342,129.807907 31.261497,132.704071 
	C29.842907,132.159363 28.424314,131.614670 26.958668,130.363785 
	C25.984638,129.158524 25.010609,127.953262 24.023144,126.055244 
	C23.018480,124.329674 22.013819,122.604095 20.999989,120.217766 
	C20.651085,119.456131 20.302181,118.694504 19.658148,117.288628 
	C10.778548,182.744629 61.172371,237.495438 125.012466,241.168259 
	C123.857941,239.558563 122.938431,238.276535 121.753304,236.442673 
	C121.168175,235.628448 120.583038,234.814224 119.903809,233.397079 
	C119.357315,232.583649 118.810814,231.770203 118.146446,230.248627 
	C117.702690,229.150131 117.258934,228.051636 116.796600,226.324936 
	C116.735451,225.910004 116.674301,225.495071 117.594437,225.038315 
	C123.017441,225.363037 128.440445,225.687744 133.987778,226.494125 
	C133.987778,226.494125 133.983368,226.991547 133.367065,227.259201 
	C132.362762,228.802933 131.358444,230.346664 130.251038,232.649338 
	C130.791626,234.483337 131.332214,236.317352 131.963531,238.883148 
	C132.836884,242.837357 136.196548,242.998993 139.029327,242.802856 
	C153.563889,241.796417 168.164139,240.752960 181.990234,235.708618 
	C190.255692,232.693039 199.442169,231.041077 205.454788,222.513641 
	C206.632721,220.335953 207.810654,218.158264 209.478516,215.555588 
	C210.532028,213.684769 211.585541,211.813950 212.936401,209.305893 
	C213.253372,208.198929 213.570358,207.091949 214.215652,205.376709 
	C214.551208,204.281357 214.886749,203.186020 215.691803,201.638290 
	C216.917099,199.799637 218.142395,197.960999 219.855423,195.747055 
	C220.831207,194.161499 221.806992,192.575943 223.095276,190.607101 
	C223.262924,190.312149 223.495728,190.083542 224.514481,189.872070 
	C226.676529,186.581558 228.838577,183.291046 231.004578,179.504547 
	C231.004578,179.504547 231.009048,179.008560 231.717102,178.882248 
	C232.264877,178.532135 233.062469,178.312454 233.323425,177.812607 
	C238.336029,168.211777 240.644073,157.959061 239.839264,147.176193 
	C239.611847,144.129227 238.339706,141.026398 236.960907,138.238968 
	C235.720505,135.731384 233.379318,133.884384 230.504333,136.137833 
	C224.649551,140.726883 219.205460,145.871323 213.147476,150.158630 
	C209.092346,153.028503 204.271469,154.816376 199.222061,156.744888 
	C196.780045,152.498825 194.338043,148.252762 191.846497,143.349609 
	C191.896988,142.244980 191.513168,140.786255 192.074341,140.098007 
	C194.310318,137.355576 193.976334,134.669052 192.369995,131.068085 
	C194.259903,126.378868 196.149796,121.689644 198.403931,116.430008 
	C201.792343,113.599007 205.594040,111.081535 205.271774,105.780853 
	C205.221191,104.948906 206.151016,104.057335 207.334351,103.249229 
	C208.602554,101.908432 209.870773,100.567635 210.836517,99.546608 
	C213.825089,99.546608 216.746368,99.830147 219.590759,99.483238 
	C224.413208,98.895081 229.187103,97.909050 234.408630,97.657501 
	C234.875427,99.168922 236.065201,100.909630 235.672348,102.148407 
	C234.531342,105.746071 236.538239,107.626846 238.784149,109.576286 
	C240.139359,110.752625 241.524170,111.894859 243.221420,113.651634 
	C244.175613,114.422630 245.129791,115.193626 246.377518,116.201805 
	C247.008911,114.444328 247.477982,113.138710 248.595078,111.947906 
	C249.377075,112.333588 250.159073,112.719269 251.263962,113.718414 
	C251.600998,114.293098 251.799927,115.098610 252.301331,115.398605 
	C253.733109,116.255302 255.287872,116.906494 256.794281,117.638519 
	C257.163361,116.122566 258.084442,114.485619 257.784271,113.116364 
	C257.197266,110.438591 255.887573,107.924950 254.952316,105.316383 
	C253.787140,102.066605 252.760956,98.765846 251.544144,95.536316 
	C251.077423,94.297562 250.250595,93.194489 249.587860,92.029579 
	C249.126816,92.285965 248.665756,92.542351 248.204712,92.798744 
	C248.107758,94.761002 248.010803,96.723259 247.467941,98.021103 
	C244.545547,90.148689 240.798996,82.826332 233.641327,77.756134 
	C234.943344,80.720161 236.924026,83.286469 238.400543,86.115868 
	C239.853531,88.900177 240.795212,91.951309 241.399475,94.700584 
	C240.981079,94.280891 240.562683,93.861206 240.189606,92.764442 
	C237.167374,88.655937 234.204651,84.501671 231.096329,80.459358 
	C229.668243,78.602165 228.106491,78.433136 226.254562,80.913971 
	C223.785782,80.754692 218.724991,86.117897 218.950577,89.618462 
	C219.204483,93.558777 217.351059,94.919838 214.099884,95.730843 
	C210.309265,96.676407 207.123001,95.835358 204.702682,92.319138 
	C204.150818,89.544533 203.598953,86.769920 203.127640,83.145721 
	C203.127640,81.557350 203.127640,79.968971 203.127640,78.067413 
	C207.349899,78.668800 210.978546,79.185638 214.914749,79.746284 
	C215.019958,74.452133 213.919754,70.633896 208.604828,68.426216 
	C208.142776,67.857529 207.680725,67.288849 208.069611,67.767471 
	C210.409378,65.222580 212.333099,63.130241 214.966110,61.005615 
	C216.671555,58.676624 218.376999,56.347637 220.774246,54.145576 
	C223.610153,55.075214 226.208191,58.456333 229.692734,55.076519 
	C225.193634,51.449478 220.871704,47.955250 216.525345,44.491661 
	C216.313065,44.322483 215.871078,44.344723 215.562469,44.407566 
	C209.813431,45.578239 208.789307,41.057083 207.065903,37.375931 
	C206.400223,35.954021 206.118805,33.841938 205.005066,33.218544 
	C193.121643,26.567039 181.022980,20.468834 167.419525,17.855915 
	C163.300461,17.064734 160.355347,17.636492 157.144409,20.966311 
	C155.093430,21.650850 153.042450,22.335392 150.351486,23.154932 
	C149.238434,24.454592 148.125397,25.754253 146.287186,27.242599 
	C144.072144,28.543242 139.516647,26.957520 140.173660,32.832405 
	C139.992935,34.174988 139.812210,35.517570 139.229416,37.431137 
	C137.827347,38.204052 136.401505,39.670135 135.027573,39.622974 
	C130.477936,39.466797 127.187592,36.896107 124.652031,32.406429 
	C123.455559,30.274401 122.259094,28.142374 121.540733,25.557018 
	C122.659538,23.995331 123.778351,22.433643 124.845612,20.943909 
	C119.011269,14.365894 112.712349,18.428883 106.845741,19.847006 
	C105.344872,20.209806 104.545998,23.476688 103.114449,25.943888 
	C106.072220,26.412416 107.999550,26.717718 109.911743,27.734015 
	C109.227303,29.126236 108.542854,30.518456 107.894684,31.836887 
	C105.771835,31.143673 104.156982,30.616341 102.542130,30.089010 
	C102.360992,30.412920 102.179863,30.736830 101.998734,31.060740 
	C103.070267,32.721684 104.141800,34.382626 104.753571,36.542763 
	C101.894493,37.322788 99.035423,38.102810 95.939621,38.191204 
	C93.868111,34.133602 90.775101,36.727154 88.136696,36.274067 
	C89.635902,35.481140 91.159111,34.729980 92.628784,33.885639 
	C94.915878,32.571663 98.044624,31.698578 95.706718,27.353952 
	C91.142250,22.720964 88.297142,23.501118 85.681595,30.598747 
	C83.703064,32.061714 81.724533,33.524681 79.531776,35.146049 
	C80.780685,36.175140 81.890755,37.089836 82.689034,38.520599 
	C82.137543,38.743484 81.586052,38.966370 80.398331,39.149597 
	C79.556862,39.724373 78.715393,40.299145 77.260765,40.894474 
	C76.851891,40.900154 76.443008,40.905834 75.903694,40.353481 
	C71.985115,40.313511 62.011436,47.588543 61.464111,51.003307 
	C61.411953,51.328743 62.327885,51.809349 62.884979,52.913231 
	C63.201408,54.685055 63.161148,56.966671 66.584816,55.341244 
	C67.359009,55.578918 68.133209,55.816593 69.325623,56.667782 
	C71.097694,57.349937 72.869759,58.032097 73.356331,58.219402 
	C75.279510,61.166325 76.575485,63.152180 78.373116,65.906738 
	C79.947174,61.642551 80.238274,58.047379 82.187218,56.232143 
	C85.108894,53.510891 85.330818,51.167271 84.159569,47.346394 
	C84.401825,45.907276 84.644081,44.468159 85.261238,42.388573 
	C87.653091,38.642986 90.836403,39.909355 94.385544,41.531166 
	C95.127533,42.074074 96.031921,42.490784 96.574318,43.188786 
	C97.437378,44.299442 98.101173,46.628506 98.774117,46.601048 
	C100.158333,46.544567 101.552971,45.355904 102.823990,44.463264 
	C103.522995,43.972355 103.979515,43.136173 104.941086,41.979763 
	C106.270889,44.345222 107.305435,46.185474 108.210594,48.750137 
	C109.681320,50.202454 110.990509,51.885029 112.658974,53.055454 
	C115.465477,55.024204 119.425323,56.170055 116.359421,60.943062 
	C116.359421,60.943062 115.890694,60.963543 115.241066,61.005394 
	C114.494942,61.621513 113.748817,62.237637 112.217865,62.967964 
	C109.482086,63.659378 106.746315,64.350792 103.262619,65.001030 
	C100.392586,66.860909 97.522560,68.720787 94.153877,70.829933 
	C93.776787,71.225372 93.399689,71.620819 92.763298,72.111786 
	C92.834404,72.065033 92.905502,72.018280 93.583336,72.021072 
z"/>
<path fill="#29210E" opacity="1.000000" stroke="none" 
	d="
M0.999998,196.000000 
	C1.000000,142.979111 1.000000,89.958214 1.342086,36.413223 
	C2.244008,35.560207 2.922185,35.341423 3.346070,34.885975 
	C10.619019,27.071463 17.898335,19.262161 25.091246,11.374201 
	C28.161169,8.007632 31.036333,4.463463 34.000000,1.000000 
	C50.687561,1.000000 67.375122,1.000000 84.442131,1.342890 
	C73.428123,6.016465 63.850380,13.423151 53.572308,19.706028 
	C37.151218,29.744070 26.533722,44.647823 17.843578,60.894741 
	C11.208086,73.300331 7.913507,86.934555 6.574854,101.316460 
	C4.926519,119.025421 3.204432,136.417267 5.763068,154.272568 
	C8.200538,171.282288 13.541608,187.088181 20.977955,202.308029 
	C26.443775,213.494812 34.788902,222.564011 44.191208,230.586670 
	C50.233353,235.742218 56.136662,241.353989 62.978413,245.204285 
	C71.443466,249.968094 80.855515,253.031525 89.765793,257.035706 
	C91.711441,257.910095 93.265572,259.655640 95.000000,261.000000 
	C81.979103,261.000000 68.958214,261.000000 55.412342,260.655762 
	C51.071465,257.505920 46.944153,255.034164 43.504250,251.825470 
	C36.256073,245.064468 29.126759,238.140381 22.401930,230.864304 
	C16.012239,223.950882 10.138221,216.604095 6.871900,207.472321 
	C5.437207,203.461288 2.988364,199.812988 0.999998,196.000000 
z"/>
<path fill="#2C240E" opacity="1.000000" stroke="none" 
	d="
M150.001053,258.091339 
	C172.891769,255.036377 194.181427,247.716949 212.879684,233.882111 
	C242.162125,212.216003 260.052338,183.257370 264.557495,147.197891 
	C267.750610,121.639763 265.011261,96.316849 253.092819,72.238510 
	C252.865479,70.148636 252.778473,68.438164 251.998413,67.146118 
	C248.086472,60.666557 243.847275,54.381554 240.036652,47.845375 
	C238.547211,45.290627 237.079056,43.512020 233.911102,44.034649 
	C233.554413,44.011967 233.282578,43.848324 233.041428,42.926193 
	C231.655869,38.113903 229.684341,34.631981 224.520279,34.705128 
	C224.520279,34.705128 224.358444,34.655487 224.464630,34.222923 
	C224.094116,29.893581 221.126831,29.367897 218.058487,28.979006 
	C200.953720,15.983782 182.082352,6.897096 160.835068,3.013113 
	C160.151215,2.888105 159.607498,1.996598 159.499222,1.231204 
	C172.354233,1.000000 184.708450,1.000000 197.587601,1.350106 
	C201.909912,4.133943 205.659286,6.646928 209.515472,8.983635 
	C216.004456,12.915717 222.854462,16.321672 229.027054,20.691334 
	C240.999008,29.166428 248.791504,41.551025 257.262207,53.115677 
	C265.903229,64.912842 267.846985,79.665329 272.966431,93.029518 
	C273.495270,94.410088 274.315155,95.679184 275.000000,97.000000 
	C275.000000,119.687561 275.000000,142.375122 274.645996,165.636047 
	C269.966797,177.948288 265.159668,189.379318 259.103546,200.447861 
	C252.347427,212.795776 244.830505,224.378693 234.508179,233.798203 
	C223.582565,243.768219 211.209198,251.782654 197.419586,257.459839 
	C195.744476,258.149475 194.463593,259.796631 193.000000,261.000000 
	C178.979111,261.000000 164.958206,261.000000 150.468658,260.636414 
	C150.000351,259.545654 150.000702,258.818512 150.001053,258.091339 
z"/>
<path fill="#2E260F" opacity="1.000000" stroke="none" 
	d="
M149.553619,257.939209 
	C150.000702,258.818512 150.000351,259.545654 150.000000,260.636414 
	C131.979111,261.000000 113.958214,261.000000 95.468658,261.000000 
	C93.265572,259.655640 91.711441,257.910095 89.765793,257.035706 
	C80.855515,253.031525 71.443466,249.968094 62.978413,245.204285 
	C56.136662,241.353989 50.233353,235.742218 44.191208,230.586670 
	C34.788902,222.564011 26.443775,213.494812 20.977955,202.308029 
	C13.541608,187.088181 8.200538,171.282288 5.763068,154.272568 
	C3.204432,136.417267 4.926519,119.025421 6.574854,101.316460 
	C7.913507,86.934555 11.208086,73.300331 17.843578,60.894741 
	C26.533722,44.647823 37.151218,29.744070 53.572308,19.706028 
	C63.850380,13.423151 73.428123,6.016465 84.910789,1.342890 
	C96.354225,1.000000 107.708458,1.000000 119.531342,1.000002 
	C119.116852,1.648793 118.314247,2.690034 117.339027,2.890185 
	C63.397659,13.960856 27.673763,45.904160 14.876499,99.184097 
	C-4.321546,179.112961 49.961773,246.506485 120.209625,256.693909 
	C129.695175,258.069489 139.466949,257.471344 149.553619,257.939209 
z"/>
<path fill="#28210E" opacity="1.000000" stroke="none" 
	d="
M193.468658,261.000000 
	C194.463593,259.796631 195.744476,258.149475 197.419586,257.459839 
	C211.209198,251.782654 223.582565,243.768219 234.508179,233.798203 
	C244.830505,224.378693 252.347427,212.795776 259.103546,200.447861 
	C265.159668,189.379318 269.966797,177.948288 274.645996,166.104706 
	C275.000000,185.687561 275.000000,205.375122 274.669006,225.604797 
	C273.642365,226.824539 272.791351,227.401077 272.274719,228.195145 
	C265.724182,238.263397 257.537018,246.793045 248.234695,254.347626 
	C245.897263,256.245911 244.064606,258.765778 242.000000,261.000000 
	C225.979111,261.000000 209.958206,261.000000 193.468658,261.000000 
z"/>
<path fill="#28210E" opacity="1.000000" stroke="none" 
	d="
M275.000000,96.531342 
	C274.315155,95.679184 273.495270,94.410088 272.966431,93.029518 
	C267.846985,79.665329 265.903229,64.912842 257.262207,53.115677 
	C248.791504,41.551025 240.999008,29.166428 229.027054,20.691334 
	C222.854462,16.321672 216.004456,12.915717 209.515472,8.983635 
	C205.659286,6.646928 201.909912,4.133943 198.056259,1.350106 
	C213.354233,1.000000 228.708450,1.000000 244.545792,1.356485 
	C245.362335,2.437616 245.508484,3.377778 246.057251,3.854638 
	C254.535172,11.221900 262.822815,18.716497 268.986176,28.304876 
	C270.284149,30.324146 272.959381,31.458111 275.000000,33.000000 
	C275.000000,54.020893 275.000000,75.041786 275.000000,96.531342 
z"/>
<path fill="#27200E" opacity="1.000000" stroke="none" 
	d="
M0.999998,196.468658 
	C2.988364,199.812988 5.437207,203.461288 6.871900,207.472321 
	C10.138221,216.604095 16.012239,223.950882 22.401930,230.864304 
	C29.126759,238.140381 36.256073,245.064468 43.504250,251.825470 
	C46.944153,255.034164 51.071465,257.505920 54.943684,260.655762 
	C47.979053,261.000000 40.958103,261.000000 33.413132,260.657837 
	C32.002361,259.387177 31.251244,258.254456 30.207962,257.561676 
	C19.430529,250.404892 10.675732,241.350266 4.018731,230.236465 
	C3.424410,229.244247 2.025325,228.734070 0.999999,228.000000 
	C1.000000,217.645767 1.000000,207.291550 0.999998,196.468658 
z"/>
<path fill="#231D0D" opacity="1.000000" stroke="none" 
	d="
M33.531342,1.000000 
	C31.036333,4.463463 28.161169,8.007632 25.091246,11.374201 
	C17.898335,19.262161 10.619019,27.071463 3.346070,34.885975 
	C2.922185,35.341423 2.244008,35.560207 1.342086,35.944565 
	C1.000000,24.408918 1.000000,12.817839 1.000000,1.000000 
	C11.686494,1.000000 22.374588,1.000000 33.531342,1.000000 
z"/>
<path fill="#231D0D" opacity="1.000000" stroke="none" 
	d="
M242.468658,261.000000 
	C244.064606,258.765778 245.897263,256.245911 248.234695,254.347626 
	C257.537018,246.793045 265.724182,238.263397 272.274719,228.195145 
	C272.791351,227.401077 273.642365,226.824539 274.669006,226.073456 
	C275.000000,237.591080 275.000000,249.182175 275.000000,261.000000 
	C264.313507,261.000000 253.625412,261.000000 242.468658,261.000000 
z"/>
<path fill="#231D0D" opacity="1.000000" stroke="none" 
	d="
M275.000000,32.531342 
	C272.959381,31.458111 270.284149,30.324146 268.986176,28.304876 
	C262.822815,18.716497 254.535172,11.221900 246.057251,3.854638 
	C245.508484,3.377778 245.362335,2.437616 245.014450,1.356485 
	C254.928894,1.000000 264.857788,1.000000 275.000000,1.000000 
	C275.000000,11.353252 275.000000,21.707968 275.000000,32.531342 
z"/>
<path fill="#231D0D" opacity="1.000000" stroke="none" 
	d="
M0.999999,228.468658 
	C2.025325,228.734070 3.424410,229.244247 4.018731,230.236465 
	C10.675732,241.350266 19.430529,250.404892 30.207962,257.561676 
	C31.251244,258.254456 32.002361,259.387177 32.944550,260.657837 
	C22.405655,261.000000 11.811309,261.000000 1.000000,261.000000 
	C1.000000,250.313416 1.000000,239.625366 0.999999,228.468658 
z"/>
<path fill="#332B10" opacity="1.000000" stroke="none" 
	d="
M152.666672,1.000001 
	C152.406799,1.221607 151.813614,1.443213 151.110199,1.332409 
	C151.444443,1.000000 151.888901,1.000000 152.666672,1.000001 
z"/>
<path fill="#A07726" opacity="1.000000" stroke="none" 
	d="
M192.525452,131.828888 
	C193.976334,134.669052 194.310318,137.355576 192.074341,140.098007 
	C191.513168,140.786255 191.896988,142.244980 191.511841,143.688965 
	C190.401855,144.284225 189.432449,144.326797 188.880783,144.828598 
	C182.405762,150.718399 182.283218,159.421906 179.276001,166.853683 
	C179.147430,167.171387 179.550964,167.796661 179.840088,168.177292 
	C184.295334,174.042358 187.863419,181.024017 193.440903,185.498474 
	C203.913940,193.900406 205.304703,196.825928 218.113449,186.409058 
	C218.500000,186.094666 218.846924,185.714752 219.271530,185.466797 
	C221.237869,184.318634 223.225159,183.206314 225.214478,182.465546 
	C224.764084,184.563309 224.304138,186.276703 223.472031,187.993744 
	C221.507523,188.722778 219.864563,189.355225 218.331757,190.189972 
	C212.417130,193.410965 206.584961,196.786255 200.628571,199.926682 
	C196.640335,202.029404 192.963409,200.376678 189.295975,198.583939 
	C179.235153,193.665955 169.121033,188.856979 159.062271,183.573669 
	C159.096527,181.373917 159.096527,179.605362 159.096527,177.636185 
	C157.130356,177.326447 155.692886,177.100006 154.021210,176.595383 
	C151.270859,175.227295 148.819092,173.427521 146.225403,173.192169 
	C140.455017,172.668594 136.069427,170.590775 133.942657,165.020142 
	C137.249649,162.754761 143.887314,163.494781 140.109787,156.310379 
	C147.695496,154.055954 154.842133,152.000214 161.932007,149.764465 
	C163.267319,149.343369 165.095169,148.448883 165.466232,147.355560 
	C167.123352,142.473083 171.221954,140.827560 175.339249,139.032104 
	C177.312408,138.171677 179.178696,137.059982 181.168015,136.244003 
	C184.925323,134.702820 188.736603,133.293198 192.525452,131.828888 
z"/>
<path fill="#A77F29" opacity="1.000000" stroke="none" 
	d="
M233.981415,97.090271 
	C229.187103,97.909050 224.413208,98.895081 219.590759,99.483238 
	C216.746368,99.830147 213.825089,99.546608 210.836517,99.546608 
	C209.870773,100.567635 208.602554,101.908432 206.559204,103.180756 
	C203.169785,104.093185 200.318253,104.686806 197.980392,106.118935 
	C184.510956,114.369995 170.826645,122.000710 155.787643,127.265251 
	C142.236374,132.009003 128.307922,134.913620 114.287735,133.480103 
	C101.393135,132.161667 88.794891,127.944786 76.066093,125.004768 
	C75.035217,120.891266 74.004341,116.777756 73.493607,112.354530 
	C77.003410,113.030266 79.932564,114.297523 82.992737,114.954651 
	C100.534515,118.721512 117.863678,121.235619 136.184891,118.433708 
	C158.219788,115.063866 177.880997,106.887001 196.789444,95.866119 
	C199.129028,94.502487 201.911392,93.898521 204.488586,92.942543 
	C207.123001,95.835358 210.309265,96.676407 214.099884,95.730843 
	C217.351059,94.919838 219.204483,93.558777 218.950577,89.618462 
	C218.724991,86.117897 223.785782,80.754692 226.766434,81.203384 
	C228.436920,82.997231 229.818619,84.383430 230.695190,86.037346 
	C231.691315,87.916862 232.235855,90.035713 233.040283,92.413078 
	C233.396378,94.213844 233.688889,95.652054 233.981415,97.090271 
z"/>
<path fill="#A17B28" opacity="1.000000" stroke="none" 
	d="
M192.447723,131.448486 
	C188.736603,133.293198 184.925323,134.702820 181.168015,136.244003 
	C179.178696,137.059982 177.312408,138.171677 175.339249,139.032104 
	C171.221954,140.827560 167.123352,142.473083 165.466232,147.355560 
	C165.095169,148.448883 163.267319,149.343369 161.932007,149.764465 
	C154.842133,152.000214 147.695496,154.055954 140.109787,156.310379 
	C143.887314,163.494781 137.249649,162.754761 133.645447,164.896332 
	C129.095673,162.967560 125.191719,161.008347 121.284515,159.055649 
	C119.529121,158.178345 117.475098,157.644150 116.056770,156.389038 
	C108.188812,149.426514 99.253868,150.090118 89.681686,152.375641 
	C88.129578,154.539856 86.917351,156.704956 85.528580,158.857056 
	C85.352043,158.844070 85.008705,158.930450 84.708679,158.660019 
	C83.099983,158.239670 81.769501,157.859131 80.486504,157.980515 
	C75.430008,158.458923 72.497543,156.980865 73.078499,151.183456 
	C73.391670,148.058319 71.466721,146.756088 68.386520,146.974716 
	C67.113510,147.065094 65.821304,146.885132 64.294212,146.817291 
	C64.294212,144.634537 64.388504,142.708588 64.264893,140.796738 
	C64.162918,139.219513 63.803032,137.658951 63.557434,136.091003 
	C62.114304,137.346970 60.488598,138.450455 59.277802,139.900436 
	C57.986904,141.446365 57.088242,143.319809 55.654594,145.026398 
	C52.495136,142.332581 49.699425,139.662643 46.949440,136.595459 
	C47.416649,132.449020 47.838135,128.699814 48.399033,124.850723 
	C48.712902,124.598549 48.853809,124.419800 49.228489,124.047874 
	C50.342472,122.965576 51.189140,122.050011 52.035812,121.134445 
	C52.473457,121.112221 52.911098,121.090004 53.736382,121.442841 
	C59.747780,125.211525 65.371544,128.605148 71.153214,132.312302 
	C73.847694,134.713089 76.333672,136.866760 78.945038,138.855835 
	C80.033768,139.685120 81.389420,140.163986 83.057213,140.858429 
	C84.070694,140.972336 84.650665,141.029984 85.296188,141.393433 
	C85.534454,143.020172 85.707191,144.341110 85.851173,145.442154 
	C88.822319,145.280212 91.408485,145.139236 94.330643,145.075806 
	C96.317696,145.929733 99.079071,147.725067 99.447083,147.324051 
	C102.913597,143.546600 106.572136,146.552002 110.097496,146.589508 
	C118.789238,146.681976 128.122269,148.818695 136.046036,146.384872 
	C155.196899,140.502563 173.253555,131.628723 189.900375,120.168327 
	C192.234283,118.561569 195.308273,118.029793 198.039703,117.000427 
	C196.149796,121.689644 194.259903,126.378868 192.447723,131.448486 
M82.541306,143.507889 
	C82.541306,143.507889 82.484085,143.533768 82.541306,143.507889 
z"/>
<path fill="#A37C28" opacity="1.000000" stroke="none" 
	d="
M198.221817,116.715210 
	C195.308273,118.029793 192.234283,118.561569 189.900375,120.168327 
	C173.253555,131.628723 155.196899,140.502563 136.046036,146.384872 
	C128.122269,148.818695 118.789238,146.681976 110.097496,146.589508 
	C106.572136,146.552002 102.913597,143.546600 99.447083,147.324051 
	C99.079071,147.725067 96.317696,145.929733 94.319901,144.700714 
	C91.058983,143.194595 88.144814,142.141113 85.230644,141.087631 
	C84.650665,141.029984 84.070694,140.972336 83.179718,140.530899 
	C80.652306,134.893509 77.409409,131.135666 70.995300,131.998764 
	C65.371544,128.605148 59.747780,125.211525 54.062298,121.485481 
	C57.378262,120.243889 60.759251,119.346802 64.132805,118.422546 
	C68.517677,117.221207 71.049973,118.651482 71.914490,123.315681 
	C72.209404,124.906792 71.862610,129.259567 75.911880,125.330826 
	C88.794891,127.944786 101.393135,132.161667 114.287735,133.480103 
	C128.307922,134.913620 142.236374,132.009003 155.787643,127.265251 
	C170.826645,122.000710 184.510956,114.369995 197.980392,106.118935 
	C200.318253,104.686806 203.169785,104.093185 206.205780,103.152802 
	C206.151016,104.057335 205.221191,104.948906 205.271774,105.780853 
	C205.594040,111.081535 201.792343,113.599007 198.221817,116.715210 
z"/>
<path fill="#B48A2D" opacity="1.000000" stroke="none" 
	d="
M214.256805,61.037903 
	C212.333099,63.130241 210.409378,65.222580 208.069611,67.767471 
	C207.680725,67.288849 208.142776,67.857529 208.755310,69.026909 
	C207.724289,70.696487 206.678879,71.989960 205.340942,72.800629 
	C184.612183,85.360367 161.595810,91.974884 138.221161,96.758308 
	C120.200203,100.446144 101.929100,98.468544 84.212898,93.019997 
	C85.299171,91.717224 86.408058,90.432510 87.466225,89.107292 
	C88.908005,87.301628 90.311096,85.465050 92.304550,83.394836 
	C97.301346,83.764458 101.740479,84.996613 106.144363,84.881424 
	C119.069489,84.543350 132.083160,84.467560 144.873795,82.823608 
	C165.393127,80.186317 184.363510,72.572784 202.543625,61.963192 
	C206.283478,61.621738 209.590469,61.275177 213.236343,60.968002 
	C213.802414,61.017559 214.029617,61.027729 214.256805,61.037903 
z"/>
<path fill="#AB822A" opacity="1.000000" stroke="none" 
	d="
M204.595642,92.630836 
	C201.911392,93.898521 199.129028,94.502487 196.789444,95.866119 
	C177.880997,106.887001 158.219788,115.063866 136.184891,118.433708 
	C117.863678,121.235619 100.534515,118.721512 82.992737,114.954651 
	C79.932564,114.297523 77.003410,113.030266 73.652695,112.031082 
	C75.756813,109.526428 78.221985,107.035507 81.301750,104.277359 
	C85.354057,104.529739 88.791183,105.053207 92.229576,105.568283 
	C106.803947,107.751541 121.380722,109.814781 136.116287,106.944458 
	C138.065460,106.564781 140.049881,106.364815 141.997314,105.977661 
	C153.204239,103.749710 164.522217,102.298180 174.918930,96.716591 
	C183.964401,91.860413 193.646378,88.189819 203.047089,83.995316 
	C203.598953,86.769920 204.150818,89.544533 204.595642,92.630836 
z"/>
<path fill="#AF862B" opacity="1.000000" stroke="none" 
	d="
M203.087372,83.570526 
	C193.646378,88.189819 183.964401,91.860413 174.918930,96.716591 
	C164.522217,102.298180 153.204239,103.749710 141.997314,105.977661 
	C140.049881,106.364815 138.065460,106.564781 136.116287,106.944458 
	C121.380722,109.814781 106.803947,107.751541 92.229576,105.568283 
	C88.791183,105.053207 85.354057,104.529739 81.502213,104.007065 
	C81.965836,100.533005 82.843582,97.062012 83.967117,93.305504 
	C101.929100,98.468544 120.200203,100.446144 138.221161,96.758308 
	C161.595810,91.974884 184.612183,85.360367 205.340942,72.800629 
	C206.678879,71.989960 207.724289,70.696487 208.965546,69.276917 
	C213.919754,70.633896 215.019958,74.452133 214.914749,79.746284 
	C210.978546,79.185638 207.349899,78.668800 203.127640,78.067413 
	C203.127640,79.968971 203.127640,81.557350 203.087372,83.570526 
z"/>
<path fill="#BA8E2F" opacity="1.000000" stroke="none" 
	d="
M202.110779,61.958084 
	C184.363510,72.572784 165.393127,80.186317 144.873795,82.823608 
	C132.083160,84.467560 119.069489,84.543350 106.144363,84.881424 
	C101.740479,84.996613 97.301346,83.764458 92.482101,83.079529 
	C94.853844,80.772629 97.621811,78.534134 100.389778,76.295647 
	C100.737045,76.658371 101.084312,77.021103 101.431587,77.383835 
	C100.861275,78.420372 100.290962,79.456917 99.720650,80.493462 
	C100.026344,80.884552 100.332039,81.275642 100.637733,81.666733 
	C103.408173,79.336716 106.178604,77.006691 109.482147,74.339508 
	C115.131363,73.668327 120.245941,73.078323 125.363853,73.047806 
	C141.333588,72.952576 156.550659,69.263306 171.413116,63.790073 
	C178.215759,61.284943 184.956741,58.612370 191.833755,56.356194 
	C193.457016,56.680347 195.532700,57.254513 196.337891,56.490219 
	C197.235504,55.638176 196.978027,53.569275 197.589081,52.039070 
	C199.381210,52.331608 200.807617,52.615116 202.117065,53.195251 
	C202.311737,55.292988 202.623352,57.094105 202.934967,58.895218 
	C203.384781,58.837467 203.834595,58.779713 204.284409,58.721962 
	C203.559860,59.800667 202.835312,60.879375 202.110779,61.958084 
z"/>
<path fill="#C19431" opacity="1.000000" stroke="none" 
	d="
M191.725677,56.015736 
	C184.956741,58.612370 178.215759,61.284943 171.413116,63.790073 
	C156.550659,69.263306 141.333588,72.952576 125.363853,73.047806 
	C120.245941,73.078323 115.131363,73.668327 109.577164,74.003868 
	C106.682037,73.615395 104.196571,73.331551 101.806686,72.691055 
	C101.531097,72.617203 101.787560,70.558090 102.226959,68.968063 
	C103.107895,67.358536 103.559219,66.200371 104.010544,65.042206 
	C106.746315,64.350792 109.482086,63.659378 112.815155,63.128681 
	C112.487045,65.123299 111.561646,66.957199 110.387962,69.283127 
	C114.413208,69.841919 118.304970,70.382179 122.513336,70.966393 
	C122.932083,68.062721 122.273529,66.130226 119.230301,64.861137 
	C117.820488,64.273224 116.986008,62.305645 115.890694,60.963539 
	C115.890694,60.963543 116.359421,60.943062 117.047882,60.957504 
	C123.501938,60.574215 129.327866,60.571491 135.021423,59.702019 
	C149.958160,57.421024 164.520187,53.759548 178.180069,46.985802 
	C183.150772,44.520885 189.237640,45.733639 192.057953,49.523643 
	C191.930115,51.920815 191.827896,53.968277 191.725677,56.015736 
z"/>
<path fill="#C79A33" opacity="1.000000" stroke="none" 
	d="
M192.083603,49.173935 
	C189.237640,45.733639 183.150772,44.520885 178.180069,46.985802 
	C164.520187,53.759548 149.958160,57.421024 135.021423,59.702019 
	C129.327866,60.571491 123.501938,60.574215 117.282333,60.949627 
	C119.425323,56.170055 115.465477,55.024204 112.658974,53.055454 
	C110.990509,51.885029 109.681320,50.202454 108.713165,48.380840 
	C125.272186,48.549721 141.130325,47.431801 156.412643,42.000927 
	C163.589294,39.450565 170.761536,37.867912 178.375549,39.956753 
	C183.656540,41.405556 189.011642,42.584244 194.508438,44.128685 
	C195.398529,45.185719 196.113831,45.997684 196.900070,46.884476 
	C196.971024,46.959297 197.119400,47.102535 197.284637,47.388184 
	C199.044586,49.415432 200.639297,51.157028 202.234009,52.898628 
	C200.807617,52.615116 199.381210,52.331608 197.516113,51.654507 
	C195.412811,50.565258 193.748199,49.869598 192.083603,49.173935 
z"/>
<path fill="#9B7325" opacity="1.000000" stroke="none" 
	d="
M225.204941,182.081161 
	C223.225159,183.206314 221.237869,184.318634 219.271530,185.466797 
	C218.846924,185.714752 218.500000,186.094666 218.113449,186.409058 
	C205.304703,196.825928 203.913940,193.900406 193.440903,185.498474 
	C187.863419,181.024017 184.295334,174.042358 179.840088,168.177292 
	C179.550964,167.796661 179.147430,167.171387 179.276001,166.853683 
	C182.283218,159.421906 182.405762,150.718399 188.880783,144.828598 
	C189.432449,144.326797 190.401855,144.284225 191.536621,144.017517 
	C194.338043,148.252762 196.780045,152.498825 199.637695,157.180618 
	C200.768280,158.522369 201.483215,159.428391 202.147034,160.795197 
	C199.604843,169.391785 203.494476,175.667694 208.179489,181.623672 
	C210.698334,184.825851 213.561996,185.545502 217.118515,182.652435 
	C219.459991,180.747772 222.356903,179.525925 225.175842,178.037262 
	C225.346588,178.076202 225.693893,178.121735 225.688782,178.490723 
	C225.764633,179.838974 225.845596,180.818253 225.749542,181.877014 
	C225.572510,181.956497 225.204941,182.081161 225.204941,182.081161 
z"/>
<path fill="#CE9E35" opacity="1.000000" stroke="none" 
	d="
M194.333633,43.883617 
	C189.011642,42.584244 183.656540,41.405556 178.375549,39.956753 
	C170.761536,37.867912 163.589294,39.450565 156.412643,42.000927 
	C141.130325,47.431801 125.272186,48.549721 108.777863,48.018631 
	C107.305435,46.185474 106.270889,44.345222 104.941086,41.979763 
	C103.979515,43.136173 103.522995,43.972355 102.823990,44.463264 
	C101.552971,45.355904 100.158333,46.544567 98.774117,46.601048 
	C98.101173,46.628506 97.437378,44.299442 96.574318,43.188786 
	C96.031921,42.490784 95.127533,42.074074 94.265594,40.948387 
	C94.822540,39.871349 95.499443,39.377087 96.176346,38.882828 
	C99.035423,38.102810 101.894493,37.322788 105.390076,36.280632 
	C112.315117,35.020683 118.603645,34.022861 124.892181,33.025043 
	C127.187592,36.896107 130.477936,39.466797 135.027573,39.622974 
	C136.401505,39.670135 137.827347,38.204052 139.885376,37.182671 
	C152.341324,34.351555 164.156448,34.342728 175.908661,37.079353 
	C182.016724,38.501682 188.026718,40.345043 194.102478,42.315086 
	C194.193832,43.049183 194.263733,43.466400 194.333633,43.883617 
z"/>
<path fill="#F4BF41" opacity="1.000000" stroke="none" 
	d="
M119.997902,234.000000 
	C120.583038,234.814224 121.168175,235.628448 121.589828,236.971970 
	C119.961983,237.598984 118.444557,237.996613 117.041382,237.748398 
	C101.633224,235.022705 86.800056,230.615540 73.196274,222.613937 
	C48.952721,208.354111 32.662380,187.985626 24.676041,160.853455 
	C20.799225,147.682678 20.877632,134.324905 21.009157,120.878525 
	C22.013819,122.604095 23.018480,124.329674 24.021652,126.895905 
	C25.102144,137.906662 25.464323,148.220703 27.461491,158.207794 
	C29.608486,168.944153 33.958694,179.094345 41.119694,187.663956 
	C46.603489,194.226471 52.364944,200.556961 58.053791,207.335480 
	C60.802395,210.013031 63.313938,212.614456 66.228729,214.633850 
	C82.416397,225.848770 100.290443,232.499405 119.997902,234.000000 
z"/>
<path fill="#A77B28" opacity="1.000000" stroke="none" 
	d="
M159.028015,184.004852 
	C169.121033,188.856979 179.235153,193.665955 189.295975,198.583939 
	C192.963409,200.376678 196.640335,202.029404 200.628571,199.926682 
	C206.584961,196.786255 212.417130,193.410965 218.331757,190.189972 
	C219.864563,189.355225 221.507523,188.722778 223.486145,188.315872 
	C223.846176,189.063324 223.819916,189.492294 223.793671,189.921265 
	C223.495728,190.083542 223.262924,190.312149 222.591370,190.814453 
	C221.065170,191.508972 219.988815,191.908203 219.029510,192.497849 
	C213.534546,195.875320 208.263977,199.683685 202.538162,202.602097 
	C196.215363,205.824783 189.644379,206.781311 182.427444,204.138977 
	C172.649673,200.559036 162.499435,197.996323 152.413284,194.629791 
	C151.764771,189.018219 156.811981,187.437607 159.028015,184.004852 
z"/>
<path fill="#B3822B" opacity="1.000000" stroke="none" 
	d="
M219.367706,196.122360 
	C218.142395,197.960999 216.917099,199.799637 215.087814,201.884796 
	C213.742096,202.482483 212.943909,202.748505 212.266815,203.197220 
	C190.215240,217.810989 166.149918,219.108398 141.100891,213.624496 
	C144.055725,209.483521 147.018723,205.710403 150.069824,202.284744 
	C155.416595,204.248337 160.595627,206.235611 165.954330,207.385895 
	C172.529724,208.797394 179.395920,210.842712 185.877563,210.159241 
	C192.753708,209.434158 199.447922,206.121597 205.990417,203.386169 
	C210.647705,201.438934 214.922318,198.576416 219.367706,196.122360 
z"/>
<path fill="#DDA237" opacity="1.000000" stroke="none" 
	d="
M58.002907,206.990631 
	C52.364944,200.556961 46.603489,194.226471 41.119694,187.663956 
	C33.958694,179.094345 29.608486,168.944153 27.461491,158.207794 
	C25.464323,148.220703 25.102144,137.906662 24.028370,127.242279 
	C25.010609,127.953262 25.984638,129.158524 27.055836,131.026764 
	C28.089010,133.119064 29.025013,134.548386 29.568302,136.010117 
	C28.459509,137.475510 27.009832,138.978897 27.139576,140.330704 
	C28.617332,155.727615 32.812790,170.392151 41.337940,183.366791 
	C50.919003,197.948456 63.783257,208.787354 79.776512,216.297012 
	C91.666222,221.879852 104.131752,224.586044 116.815178,226.953140 
	C117.258934,228.051636 117.702690,229.150131 117.767380,230.609711 
	C101.271790,228.145340 85.552361,224.165924 71.488029,215.312683 
	C67.018021,212.498901 62.499329,209.762451 58.002907,206.990631 
z"/>
<path fill="#F5CB45" opacity="1.000000" stroke="none" 
	d="
M157.881851,20.888992 
	C160.355347,17.636492 163.300461,17.064734 167.419525,17.855915 
	C181.022980,20.468834 193.121643,26.567039 205.005066,33.218544 
	C206.118805,33.841938 206.400223,35.954021 207.065903,37.375931 
	C208.789307,41.057083 209.813431,45.578239 215.562469,44.407566 
	C215.871078,44.344723 216.313065,44.322483 216.525345,44.491661 
	C220.871704,47.955250 225.193634,51.449478 229.692734,55.076519 
	C226.208191,58.456333 223.610153,55.075214 220.126556,53.914742 
	C218.368179,52.485783 217.385529,51.128815 216.126862,50.114277 
	C204.455841,40.706928 191.463150,33.837090 177.089569,29.641716 
	C176.553818,28.206970 176.070145,26.321806 175.159073,26.085682 
	C173.217484,25.582481 171.054092,25.935026 168.962677,25.559460 
	C167.602249,24.280092 166.369476,23.072672 164.893875,22.547380 
	C162.644775,21.746733 160.227631,21.418076 157.881851,20.888992 
z"/>
<path fill="#FADD4A" opacity="1.000000" stroke="none" 
	d="
M21.004574,120.548141 
	C20.877632,134.324905 20.799225,147.682678 24.676041,160.853455 
	C32.662380,187.985626 48.952721,208.354111 73.196274,222.613937 
	C86.800056,230.615540 101.633224,235.022705 117.041382,237.748398 
	C118.444557,237.996613 119.961983,237.598984 121.722633,237.247894 
	C122.938431,238.276535 123.857941,239.558563 125.012466,241.168259 
	C61.172371,237.495438 10.778548,182.744629 19.658148,117.288628 
	C20.302181,118.694504 20.651085,119.456131 21.004574,120.548141 
z"/>
<path fill="#F2B43E" opacity="1.000000" stroke="none" 
	d="
M208.988586,215.980560 
	C207.810654,218.158264 206.632721,220.335953 204.818207,222.746338 
	C202.307663,223.562759 200.308060,223.897202 198.579056,224.768570 
	C180.561371,233.849060 161.426376,238.004044 141.318527,238.011627 
	C138.169937,238.012817 135.021378,238.102554 131.872803,238.151352 
	C131.332214,236.317352 130.791626,234.483337 130.736420,232.300629 
	C141.309036,231.621506 151.511536,232.115021 161.450424,230.724487 
	C171.018570,229.385834 180.409500,226.410110 189.697266,223.563141 
	C196.283615,221.544250 202.568909,218.543213 208.988586,215.980560 
z"/>
<path fill="#AB7E29" opacity="1.000000" stroke="none" 
	d="
M219.611572,195.934708 
	C214.922318,198.576416 210.647705,201.438934 205.990417,203.386169 
	C199.447922,206.121597 192.753708,209.434158 185.877563,210.159241 
	C179.395920,210.842712 172.529724,208.797394 165.954330,207.385895 
	C160.595627,206.235611 155.416595,204.248337 150.327408,202.016251 
	C151.012543,199.601227 151.528168,197.802139 152.155243,195.749359 
	C152.347443,195.329529 152.428223,195.163391 152.508987,194.997238 
	C162.499435,197.996323 172.649673,200.559036 182.427444,204.138977 
	C189.644379,206.781311 196.215363,205.824783 202.538162,202.602097 
	C208.263977,199.683685 213.534546,195.875320 219.029510,192.497849 
	C219.988815,191.908203 221.065170,191.508972 222.435120,191.006088 
	C221.806992,192.575943 220.831207,194.161499 219.611572,195.934708 
z"/>
<path fill="#CA9432" opacity="1.000000" stroke="none" 
	d="
M116.805893,226.639038 
	C104.131752,224.586044 91.666222,221.879852 79.776512,216.297012 
	C63.783257,208.787354 50.919003,197.948456 41.337940,183.366791 
	C32.812790,170.392151 28.617332,155.727615 27.139576,140.330704 
	C27.009832,138.978897 28.459509,137.475510 29.737366,136.379883 
	C30.528948,139.477890 30.758751,142.238525 30.759089,145.243134 
	C31.015678,146.664413 31.501732,147.841705 31.986790,149.348907 
	C31.985880,150.118683 31.985968,150.558548 31.768353,151.217712 
	C32.030952,152.295975 32.511257,153.154922 32.990654,154.344269 
	C32.988850,155.115097 32.987953,155.555557 32.754627,156.247223 
	C34.881855,170.880508 42.650650,182.370529 52.166283,193.250595 
	C52.865646,193.991608 53.434906,194.478165 54.162025,195.264374 
	C58.507763,199.014481 62.484856,202.768463 66.926720,205.853210 
	C76.658447,212.611649 87.447174,217.193405 99.082123,219.418991 
	C104.053749,220.369980 109.217766,220.315262 114.491592,220.905487 
	C114.882767,221.401291 115.076706,221.709122 115.259018,222.312424 
	C115.702652,223.431961 116.157906,224.256058 116.613159,225.080139 
	C116.674301,225.495071 116.735451,225.910004 116.805893,226.639038 
z"/>
<path fill="#FDF350" opacity="1.000000" stroke="none" 
	d="
M202.198151,160.334412 
	C201.483215,159.428391 200.768280,158.522369 199.923294,157.352386 
	C204.271469,154.816376 209.092346,153.028503 213.147476,150.158630 
	C219.205460,145.871323 224.649551,140.726883 230.504333,136.137833 
	C233.379318,133.884384 235.720505,135.731384 236.960907,138.238968 
	C238.339706,141.026398 239.611847,144.129227 239.839264,147.176193 
	C240.644073,157.959061 238.336029,168.211777 233.323425,177.812607 
	C233.062469,178.312454 232.264877,178.532135 231.415863,178.577087 
	C231.346283,177.649429 231.613434,177.037598 231.804062,176.402786 
	C233.538986,170.624924 235.509140,164.900879 236.872696,159.036041 
	C237.480042,156.423798 237.335129,153.399918 236.648438,150.795761 
	C236.061691,148.570663 234.526871,146.308899 232.771271,144.816330 
	C232.043900,144.197952 229.332962,145.118011 228.067322,146.064682 
	C222.520630,150.213531 217.158691,154.610855 211.778778,158.978470 
	C211.328568,159.343964 211.243134,160.158813 210.614716,160.863220 
	C207.560196,160.752502 204.879166,160.543457 202.198151,160.334412 
z"/>
<path fill="#BE882E" opacity="1.000000" stroke="none" 
	d="
M141.109055,213.992355 
	C166.149918,219.108398 190.215240,217.810989 212.266815,203.197220 
	C212.943909,202.748505 213.742096,202.482483 214.853058,202.110977 
	C214.886749,203.186020 214.551208,204.281357 213.693542,205.697220 
	C211.560944,206.812622 209.962662,207.633453 208.337784,208.397751 
	C202.217743,211.276520 196.269180,214.641815 189.927872,216.903992 
	C174.458664,222.422455 158.186249,222.493851 142.020477,222.939606 
	C140.654053,222.977310 139.265106,222.197479 137.974350,221.463898 
	C139.077728,218.751022 140.093384,216.371689 141.109055,213.992355 
z"/>
<path fill="#DD9D36" opacity="1.000000" stroke="none" 
	d="
M209.233551,215.768066 
	C202.568909,218.543213 196.283615,221.544250 189.697266,223.563141 
	C180.409500,226.410110 171.018570,229.385834 161.450424,230.724487 
	C151.511536,232.115021 141.309036,231.621506 130.787964,231.921158 
	C131.358444,230.346664 132.362762,228.802933 134.121063,227.127167 
	C138.671509,227.328613 142.489044,228.084946 146.259521,227.896988 
	C151.999878,227.610840 157.707169,226.666550 163.429337,226.009094 
	C175.359940,224.638306 186.934509,221.952652 197.854019,216.793137 
	C202.764847,214.472748 207.709656,212.224258 212.639038,209.943146 
	C211.585541,211.813950 210.532028,213.684769 209.233551,215.768066 
z"/>
<path fill="#FBEA4E" opacity="1.000000" stroke="none" 
	d="
M210.988220,160.764893 
	C211.243134,160.158813 211.328568,159.343964 211.778778,158.978470 
	C217.158691,154.610855 222.520630,150.213531 228.067322,146.064682 
	C229.332962,145.118011 232.043900,144.197952 232.771271,144.816330 
	C234.526871,146.308899 236.061691,148.570663 236.648438,150.795761 
	C237.335129,153.399918 237.480042,156.423798 236.872696,159.036041 
	C235.509140,164.900879 233.538986,170.624924 231.804062,176.402786 
	C231.613434,177.037598 231.346283,177.649429 231.061829,178.640228 
	C231.009048,179.008560 231.004578,179.504547 230.716614,179.917740 
	C227.381699,183.870346 227.381699,183.870346 225.926575,181.797531 
	C225.845596,180.818253 225.764633,179.838974 226.059662,178.395294 
	C228.246277,173.804382 230.684647,169.816345 231.636749,165.500427 
	C232.226807,162.825638 230.560226,159.653015 229.906586,156.703857 
	C227.588608,157.834106 225.270645,158.964371 222.509811,160.026703 
	C218.374039,160.227478 214.681122,160.496185 210.988220,160.764893 
z"/>
<path fill="#CA9031" opacity="1.000000" stroke="none" 
	d="
M212.787720,209.624512 
	C207.709656,212.224258 202.764847,214.472748 197.854019,216.793137 
	C186.934509,221.952652 175.359940,224.638306 163.429337,226.009094 
	C157.707169,226.666550 151.999878,227.610840 146.259521,227.896988 
	C142.489044,228.084946 138.671509,227.328613 134.429199,226.993347 
	C133.983368,226.991547 133.987778,226.494125 134.007980,225.948181 
	C134.699615,224.619537 135.371063,223.836838 136.294739,222.932892 
	C136.993530,222.473572 137.440063,222.135498 137.886627,221.797440 
	C139.265106,222.197479 140.654053,222.977310 142.020477,222.939606 
	C158.186249,222.493851 174.458664,222.422455 189.927872,216.903992 
	C196.269180,214.641815 202.217743,211.276520 208.337784,208.397751 
	C209.962662,207.633453 211.560944,206.812622 213.529388,206.001358 
	C213.570358,207.091949 213.253372,208.198929 212.787720,209.624512 
z"/>
<path fill="#D9A738" opacity="1.000000" stroke="none" 
	d="
M176.947968,29.938618 
	C191.463150,33.837090 204.455841,40.706928 216.126862,50.114277 
	C217.385529,51.128815 218.368179,52.485783 219.780655,53.851280 
	C218.376999,56.347637 216.671555,58.676624 214.611450,61.021759 
	C214.029617,61.027729 213.802414,61.017559 213.095123,60.644493 
	C212.054733,58.785736 211.856720,56.970013 210.869110,55.851444 
	C207.298721,51.807636 203.571640,47.884209 199.669586,44.160690 
	C198.259796,42.815414 196.190231,42.161552 194.063370,41.036499 
	C188.219803,38.994453 182.710022,37.175598 177.260452,35.191387 
	C174.780777,34.288525 172.420181,33.058605 170.376709,31.975670 
	C172.814560,31.295740 174.881271,30.617180 176.947968,29.938618 
z"/>
<path fill="#F8D648" opacity="1.000000" stroke="none" 
	d="
M131.918167,238.517242 
	C135.021378,238.102554 138.169937,238.012817 141.318527,238.011627 
	C161.426376,238.004044 180.561371,233.849060 198.579056,224.768570 
	C200.308060,223.897202 202.307663,223.562759 204.569168,222.966797 
	C199.442169,231.041077 190.255692,232.693039 181.990234,235.708618 
	C168.164139,240.752960 153.563889,241.796417 139.029327,242.802856 
	C136.196548,242.998993 132.836884,242.837357 131.918167,238.517242 
z"/>
<path fill="#F1AF3D" opacity="1.000000" stroke="none" 
	d="
M58.053795,207.335480 
	C62.499329,209.762451 67.018021,212.498901 71.488029,215.312683 
	C85.552361,224.165924 101.271790,228.145340 117.826309,230.963791 
	C118.810814,231.770203 119.357315,232.583649 119.950851,233.698547 
	C100.290443,232.499405 82.416397,225.848770 66.228729,214.633850 
	C63.313938,212.614456 60.802395,210.013031 58.053795,207.335480 
z"/>
<path fill="#D1A036" opacity="1.000000" stroke="none" 
	d="
M170.005569,31.977036 
	C172.420181,33.058605 174.780777,34.288525 177.260452,35.191387 
	C182.710022,37.175598 188.219803,38.994453 193.974579,41.236351 
	C194.244156,41.591892 194.081024,41.998207 194.081024,41.998207 
	C188.026718,40.345043 182.016724,38.501682 175.908661,37.079353 
	C164.156448,34.342728 152.341324,34.351555 140.086411,36.897179 
	C139.812210,35.517570 139.992935,34.174988 140.704803,32.424503 
	C148.255081,32.213448 155.274155,32.496666 162.293411,32.501221 
	C163.202621,32.501812 164.112762,31.062859 165.349411,30.370867 
	C167.119415,30.959688 168.562485,31.468361 170.005569,31.977036 
z"/>
<path fill="#F6CA45" opacity="1.000000" stroke="none" 
	d="
M109.926888,27.023022 
	C107.999550,26.717718 106.072220,26.412416 103.114449,25.943888 
	C104.545998,23.476688 105.344872,20.209806 106.845741,19.847006 
	C112.712349,18.428883 119.011269,14.365894 124.845612,20.943909 
	C123.778351,22.433643 122.659538,23.995331 120.881287,25.795856 
	C116.790192,26.364136 113.358543,26.693579 109.926888,27.023022 
z"/>
<path fill="#FDF451" opacity="1.000000" stroke="none" 
	d="
M51.981575,120.772659 
	C51.189140,122.050011 50.342472,122.965576 49.032509,123.990074 
	C48.569218,124.099007 48.161179,124.075401 47.781532,124.007996 
	C42.789574,121.717117 39.937912,124.317276 38.318466,127.991806 
	C36.968132,131.055725 36.728558,134.609177 35.754799,137.953186 
	C35.512554,137.960526 35.032368,137.894409 34.902298,137.621841 
	C34.215481,136.757553 33.658741,136.165833 33.029068,135.300842 
	C32.584133,134.371033 32.212139,133.714539 31.840141,133.058029 
	C33.509342,129.807907 35.194153,126.565659 36.837490,123.302521 
	C37.285061,122.413788 37.398079,121.274567 38.025578,120.573273 
	C40.241463,118.096848 42.613941,115.760544 44.927040,113.371109 
	C47.260475,115.717705 49.593906,118.064285 51.981575,120.772659 
z"/>
<path fill="#E0AE3B" opacity="1.000000" stroke="none" 
	d="
M96.057983,38.537018 
	C95.499443,39.377087 94.822540,39.871349 94.069565,40.687622 
	C90.836403,39.909355 87.653091,38.642986 84.709038,42.716782 
	C80.129097,45.127190 75.952408,46.972794 72.129089,49.379707 
	C69.809898,50.839714 68.037262,53.167919 66.019081,55.106083 
	C63.161148,56.966671 63.201408,54.685055 63.073273,52.288185 
	C66.419556,49.382908 69.652603,47.197243 72.700409,44.778179 
	C74.009781,43.738922 74.934601,42.215157 76.034134,40.911518 
	C76.443008,40.905834 76.851891,40.900154 77.789383,41.050377 
	C79.223526,40.533943 80.129044,39.861603 81.034561,39.189255 
	C81.586052,38.966370 82.137543,38.743484 83.122955,38.114418 
	C85.051872,37.464909 86.546867,37.221581 88.041855,36.978256 
	C90.775101,36.727154 93.868111,34.133602 96.057983,38.537018 
z"/>
<path fill="#DDAA3A" opacity="1.000000" stroke="none" 
	d="
M109.919312,27.378517 
	C113.358543,26.693579 116.790192,26.364136 120.642235,26.022520 
	C122.259094,28.142374 123.455559,30.274401 124.772110,32.715736 
	C118.603645,34.022861 112.315117,35.020683 105.619949,36.031036 
	C104.141800,34.382626 103.070267,32.721684 101.998734,31.060740 
	C102.179863,30.736830 102.360992,30.412920 102.542130,30.089010 
	C104.156982,30.616341 105.771835,31.143673 107.894684,31.836887 
	C108.542854,30.518456 109.227303,29.126236 109.919312,27.378517 
z"/>
<path fill="#C89B33" opacity="1.000000" stroke="none" 
	d="
M83.825653,48.014214 
	C85.330818,51.167271 85.108894,53.510891 82.187218,56.232143 
	C80.238274,58.047379 79.947174,61.642551 78.373116,65.906738 
	C76.575485,63.152180 75.279510,61.166325 73.356331,58.219402 
	C72.869759,58.032097 71.097694,57.349937 69.387810,56.150696 
	C74.241882,53.093807 79.033768,50.554012 83.825653,48.014214 
z"/>
<path fill="#F3C443" opacity="1.000000" stroke="none" 
	d="
M247.913849,98.685516 
	C248.010803,96.723259 248.107758,94.761002 248.204712,92.798744 
	C248.665756,92.542351 249.126816,92.285965 249.587860,92.029579 
	C250.250595,93.194489 251.077423,94.297562 251.544144,95.536316 
	C252.760956,98.765846 253.787140,102.066605 254.952316,105.316383 
	C255.887573,107.924950 257.197266,110.438591 257.784271,113.116364 
	C258.084442,114.485619 257.163361,116.122566 256.794250,117.638519 
	C255.287872,116.906494 253.733109,116.255302 252.301331,115.398605 
	C251.799927,115.098610 251.600998,114.293098 251.361801,113.120377 
	C251.280731,110.657120 251.358582,108.720436 250.863953,106.943069 
	C250.082352,104.134399 248.916855,101.432564 247.913849,98.685516 
z"/>
<path fill="#D0A136" opacity="1.000000" stroke="none" 
	d="
M247.690887,98.353310 
	C248.916855,101.432564 250.082352,104.134399 250.863953,106.943069 
	C251.358582,108.720436 251.280731,110.657120 251.200348,112.813644 
	C250.159073,112.719269 249.377075,112.333588 248.263718,111.513504 
	C245.942001,105.681190 243.951645,100.283272 241.961273,94.885361 
	C240.795212,91.951309 239.853531,88.900177 238.400543,86.115868 
	C236.924026,83.286469 234.943344,80.720161 233.641327,77.756134 
	C240.798996,82.826332 244.545547,90.148689 247.690887,98.353310 
z"/>
<path fill="#AD852B" opacity="1.000000" stroke="none" 
	d="
M234.195023,97.373886 
	C233.688889,95.652054 233.396378,94.213844 233.338745,92.275520 
	C237.122726,90.760986 236.944580,93.380219 237.693527,95.594017 
	C238.255173,97.254211 239.840958,98.567932 240.992340,100.412262 
	C242.075439,103.893532 243.278290,106.961716 244.101410,110.128593 
	C244.313278,110.943665 243.329941,112.069389 242.895660,113.052399 
	C241.524170,111.894859 240.139359,110.752625 238.784149,109.576286 
	C236.538239,107.626846 234.531342,105.746071 235.672348,102.148407 
	C236.065201,100.909630 234.875427,99.168922 234.195023,97.373886 
z"/>
<path fill="#B78E2E" opacity="1.000000" stroke="none" 
	d="
M240.970764,100.035919 
	C239.840958,98.567932 238.255173,97.254211 237.693527,95.594017 
	C236.944580,93.380219 237.122726,90.760986 233.275162,91.912964 
	C232.235855,90.035713 231.691315,87.916862 230.695190,86.037346 
	C229.818619,84.383430 228.436920,82.997231 227.116241,81.181511 
	C228.106491,78.433136 229.668243,78.602165 231.096329,80.459358 
	C234.204651,84.501671 237.167374,88.655937 240.138184,93.541153 
	C240.381439,96.223885 240.676102,98.129898 240.970764,100.035919 
z"/>
<path fill="#D9A738" opacity="1.000000" stroke="none" 
	d="
M165.022491,30.290724 
	C164.112762,31.062859 163.202621,32.501812 162.293411,32.501221 
	C155.274155,32.496666 148.255081,32.213448 140.802582,32.028946 
	C139.516647,26.957520 144.072144,28.543242 146.867828,27.467419 
	C151.963593,27.804640 156.478714,27.917042 161.326355,28.073349 
	C162.780075,28.841745 163.901276,29.566236 165.022491,30.290724 
z"/>
<path fill="#332B10" opacity="1.000000" stroke="none" 
	d="
M234.030670,44.353226 
	C237.079056,43.512020 238.547211,45.290627 240.036652,47.845375 
	C243.847275,54.381554 248.086472,60.666557 251.998413,67.146118 
	C252.778473,68.438164 252.865479,70.148636 253.025864,71.878632 
	C246.569855,62.951328 240.360046,53.811565 234.030670,44.353226 
z"/>
<path fill="#D1A036" opacity="1.000000" stroke="none" 
	d="
M83.992615,47.680305 
	C79.033768,50.554012 74.241882,53.093807 69.178696,55.843937 
	C68.133209,55.816593 67.359009,55.578918 66.301949,55.223663 
	C68.037262,53.167919 69.809898,50.839714 72.129089,49.379707 
	C75.952408,46.972794 80.129097,45.127190 84.521591,43.037018 
	C84.644081,44.468159 84.401825,45.907276 83.992615,47.680305 
z"/>
<path fill="#F4BF41" opacity="1.000000" stroke="none" 
	d="
M88.089279,36.626160 
	C86.546867,37.221581 85.051872,37.464909 83.278854,37.856380 
	C81.890755,37.089836 80.780685,36.175140 79.531776,35.146049 
	C81.724533,33.524681 83.703064,32.061714 86.205276,30.250528 
	C89.842590,29.239120 92.956223,28.575932 96.069855,27.912739 
	C98.044624,31.698578 94.915878,32.571663 92.628784,33.885639 
	C91.159111,34.729980 89.635902,35.481140 88.089279,36.626160 
z"/>
<path fill="#FDF451" opacity="1.000000" stroke="none" 
	d="
M136.042496,223.054138 
	C135.371063,223.836838 134.699615,224.619537 133.945816,225.707352 
	C128.440445,225.687744 123.017441,225.363037 117.103798,225.059235 
	C116.157906,224.256058 115.702652,223.431961 115.637650,222.287323 
	C121.403442,221.666824 126.777420,221.228760 132.155685,221.167419 
	C133.443954,221.152725 134.746506,222.391739 136.042496,223.054138 
z"/>
<path fill="#B98D2E" opacity="1.000000" stroke="none" 
	d="
M240.992340,100.412262 
	C240.676102,98.129898 240.381439,96.223885 240.115540,93.879684 
	C240.562683,93.861206 240.981079,94.280891 241.680389,94.792969 
	C243.951645,100.283272 245.942001,105.681190 247.939697,111.456100 
	C247.477982,113.138710 247.008911,114.444328 246.377518,116.201805 
	C245.129791,115.193626 244.175613,114.422630 243.058533,113.352020 
	C243.329941,112.069389 244.313278,110.943665 244.101410,110.128593 
	C243.278290,106.961716 242.075439,103.893532 240.992340,100.412262 
z"/>
<path fill="#F3BE41" opacity="1.000000" stroke="none" 
	d="
M157.513123,20.927650 
	C160.227631,21.418076 162.644775,21.746733 164.893875,22.547380 
	C166.369476,23.072672 167.602249,24.280092 168.699493,25.716806 
	C167.747971,26.927313 167.040726,27.603035 166.580353,28.042887 
	C164.602661,27.319185 162.812958,26.664280 160.622559,25.945555 
	C157.145050,24.927803 154.068268,23.973871 150.991470,23.019936 
	C153.042450,22.335392 155.093430,21.650850 157.513123,20.927650 
z"/>
<path fill="#FBF852" opacity="1.000000" stroke="none" 
	d="
M115.565880,60.984467 
	C116.986008,62.305645 117.820488,64.273224 119.230301,64.861137 
	C122.273529,66.130226 122.932083,68.062721 122.513336,70.966393 
	C118.304970,70.382179 114.413208,69.841919 110.387962,69.283127 
	C111.561646,66.957199 112.487045,65.123299 113.207565,63.071579 
	C113.748817,62.237637 114.494942,61.621513 115.565880,60.984467 
z"/>
<path fill="#EFB93F" opacity="1.000000" stroke="none" 
	d="
M75.968918,40.632500 
	C74.934601,42.215157 74.009781,43.738922 72.700409,44.778179 
	C69.652603,47.197243 66.419556,49.382908 63.027977,51.940529 
	C62.327885,51.809349 61.411953,51.328743 61.464111,51.003307 
	C62.011436,47.588543 71.985115,40.313511 75.968918,40.632500 
z"/>
<path fill="#DFAC3A" opacity="1.000000" stroke="none" 
	d="
M150.671478,23.087437 
	C154.068268,23.973871 157.145050,24.927803 160.611435,26.282101 
	C160.998627,27.131460 160.996231,27.580452 160.993851,28.029446 
	C156.478714,27.917042 151.963593,27.804640 147.230408,27.373075 
	C148.125397,25.754253 149.238434,24.454592 150.671478,23.087437 
z"/>
<path fill="#F8D648" opacity="1.000000" stroke="none" 
	d="
M95.888290,27.633347 
	C92.956223,28.575932 89.842590,29.239120 86.373291,29.956549 
	C88.297142,23.501118 91.142250,22.720964 95.888290,27.633347 
z"/>
<path fill="#B98D2E" opacity="1.000000" stroke="none" 
	d="
M31.550819,132.881042 
	C32.212139,133.714539 32.584133,134.371033 33.003853,135.778076 
	C32.702118,139.352814 32.352661,142.177017 31.749521,145.000641 
	C31.326744,144.999756 31.157650,144.999451 30.988554,144.999161 
	C30.758751,142.238525 30.528948,139.477890 30.130081,136.347473 
	C29.025013,134.548386 28.089010,133.119064 27.079365,131.379852 
	C28.424314,131.614670 29.842907,132.159363 31.550819,132.881042 
z"/>
<path fill="#FDF350" opacity="1.000000" stroke="none" 
	d="
M225.749542,181.877014 
	C227.381699,183.870346 227.381699,183.870346 230.714630,180.165741 
	C228.838577,183.291046 226.676529,186.581558 224.154083,189.896667 
	C223.819916,189.492294 223.846176,189.063324 223.858307,188.312225 
	C224.304138,186.276703 224.764084,184.563309 225.214478,182.465546 
	C225.204941,182.081161 225.572510,181.956497 225.749542,181.877014 
z"/>
<path fill="#CCA837" opacity="1.000000" stroke="none" 
	d="
M103.636581,65.021622 
	C103.559219,66.200371 103.107895,67.358536 102.444077,68.735977 
	C100.094475,69.642204 97.957375,70.329155 95.362259,70.950790 
	C94.904236,70.885475 94.652527,70.580666 94.652527,70.580666 
	C97.522560,68.720787 100.392586,66.860909 103.636581,65.021622 
z"/>
<path fill="#332B10" opacity="1.000000" stroke="none" 
	d="
M224.703995,34.962669 
	C229.684341,34.631981 231.655869,38.113903 232.980713,42.687973 
	C230.278671,40.451591 227.583191,37.835899 224.703995,34.962669 
z"/>
<path fill="#332B10" opacity="1.000000" stroke="none" 
	d="
M218.223831,29.261276 
	C221.126831,29.367897 224.094116,29.893581 224.430267,34.145576 
	C222.322861,32.848381 220.356018,31.195965 218.223831,29.261276 
z"/>
<path fill="#EFB93F" opacity="1.000000" stroke="none" 
	d="
M80.716446,39.169426 
	C80.129044,39.861603 79.223526,40.533943 78.095963,41.040100 
	C78.715393,40.299145 79.556862,39.724373 80.716446,39.169426 
z"/>
<path fill="#CCA837" opacity="1.000000" stroke="none" 
	d="
M95.030746,71.037338 
	C94.632614,71.466492 94.107971,71.743782 93.290497,72.008667 
	C92.997665,71.996254 93.022598,72.016258 93.022598,72.016258 
	C93.399689,71.620819 93.776787,71.225372 94.403198,70.705299 
	C94.652527,70.580666 94.904236,70.885475 95.030746,71.037338 
z"/>
<path fill="#CCA837" opacity="1.000000" stroke="none" 
	d="
M92.987137,71.983894 
	C92.905502,72.018280 92.834404,72.065033 92.892944,72.064026 
	C93.022598,72.016258 92.997665,71.996254 92.987137,71.983894 
z"/>
<path fill="#FDF350" opacity="1.000000" stroke="none" 
	d="
M152.413284,194.629791 
	C152.428223,195.163391 152.347443,195.329529 151.766785,195.735657 
	C148.629837,195.056412 145.246429,194.855713 143.518631,193.061081 
	C140.388474,189.809753 136.822372,189.476700 132.834290,188.822479 
	C129.214493,188.228683 125.428596,186.844742 122.400566,184.796829 
	C114.481552,179.441086 106.992088,173.454971 99.221718,167.872818 
	C94.827904,164.716385 90.217804,161.861008 85.705124,158.870041 
	C86.917351,156.704956 88.129578,154.539856 89.752792,152.687973 
	C90.637558,153.671158 90.971649,154.543304 91.605652,154.981400 
	C105.517021,164.593948 119.409760,174.380951 136.491379,177.532791 
	C142.326889,178.609543 148.502151,181.192352 154.255417,176.873550 
	C155.692886,177.100006 157.130356,177.326447 159.096527,177.636185 
	C159.096527,179.605362 159.096527,181.373917 159.062271,183.573669 
	C156.811981,187.437607 151.764771,189.018219 152.413284,194.629791 
z"/>
<path fill="#FEFA52" opacity="1.000000" stroke="none" 
	d="
M154.021210,176.595383 
	C148.502151,181.192352 142.326889,178.609543 136.491379,177.532791 
	C119.409760,174.380951 105.517021,164.593948 91.605652,154.981400 
	C90.971649,154.543304 90.637558,153.671158 90.092682,152.688843 
	C99.253868,150.090118 108.188812,149.426514 116.056770,156.389038 
	C117.475098,157.644150 119.529121,158.178345 121.284515,159.055649 
	C125.191719,161.008347 129.095673,162.967560 133.298157,165.047928 
	C136.069427,170.590775 140.455017,172.668594 146.225403,173.192169 
	C148.819092,173.427521 151.270859,175.227295 154.021210,176.595383 
z"/>
<path fill="#FCEB4F" opacity="1.000000" stroke="none" 
	d="
M85.528587,158.857056 
	C90.217804,161.861008 94.827904,164.716385 99.221718,167.872818 
	C106.992088,173.454971 114.481552,179.441086 122.400566,184.796829 
	C125.428596,186.844742 129.214493,188.228683 132.834290,188.822479 
	C136.822372,189.476700 140.388474,189.809753 143.518631,193.061081 
	C145.246429,194.855713 148.629837,195.056412 151.655334,195.989365 
	C151.528168,197.802139 151.012543,199.601227 150.239319,201.668793 
	C147.018723,205.710403 144.055725,209.483521 141.100891,213.624496 
	C140.093384,216.371689 139.077728,218.751022 137.974335,221.463898 
	C137.440063,222.135498 136.993530,222.473572 136.294739,222.932892 
	C134.746506,222.391739 133.443954,221.152725 132.155685,221.167419 
	C126.777420,221.228760 121.403442,221.666824 115.649269,221.991867 
	C115.076706,221.709122 114.882767,221.401291 114.429214,220.546051 
	C113.505226,217.936172 112.840858,215.873703 112.158577,213.405823 
	C111.923233,211.395096 111.705788,209.789780 111.871902,207.994217 
	C112.816269,205.842865 114.373047,203.466522 113.759537,201.995026 
	C111.514221,196.609650 113.570755,188.689178 105.242355,186.619156 
	C104.406357,186.411377 103.836357,185.241272 103.078850,184.592575 
	C97.384132,179.715683 91.673347,174.857529 86.020370,169.617462 
	C85.721085,166.142273 85.369011,163.043137 85.018028,159.690582 
	C85.015640,159.268265 85.012169,159.099350 85.008705,158.930450 
	C85.008705,158.930450 85.352043,158.844070 85.528587,158.857056 
z"/>
<path fill="#F7E34C" opacity="1.000000" stroke="none" 
	d="
M84.708679,158.660019 
	C85.012169,159.099350 85.015640,159.268265 84.708542,159.527023 
	C81.395897,159.680756 77.925125,160.750824 75.482803,159.613129 
	C69.072212,156.626862 63.109779,152.678543 56.934624,148.765503 
	C56.606422,147.295074 56.312382,146.172668 56.018341,145.050278 
	C57.088242,143.319809 57.986904,141.446365 59.277802,139.900436 
	C60.488598,138.450455 62.114304,137.346970 63.557434,136.091003 
	C63.803032,137.658951 64.162918,139.219513 64.264893,140.796738 
	C64.388504,142.708588 64.294212,144.634537 64.294212,146.817291 
	C65.821304,146.885132 67.113510,147.065094 68.386520,146.974716 
	C71.466721,146.756088 73.391670,148.058319 73.078499,151.183456 
	C72.497543,156.980865 75.430008,158.458923 80.486504,157.980515 
	C81.769501,157.859131 83.099983,158.239670 84.708679,158.660019 
z"/>
<path fill="#FBE84E" opacity="1.000000" stroke="none" 
	d="
M35.997040,137.945831 
	C36.728558,134.609177 36.968132,131.055725 38.318466,127.991806 
	C39.937912,124.317276 42.789574,121.717117 47.777206,124.229996 
	C48.152527,124.519417 48.259621,124.950600 48.259621,124.950600 
	C47.838135,128.699814 47.416649,132.449020 46.577774,136.599609 
	C43.475071,138.329895 40.789768,139.658829 37.939137,140.724762 
	C37.181553,139.623108 36.589298,138.784470 35.997040,137.945831 
z"/>
<path fill="#F7DD4A" opacity="1.000000" stroke="none" 
	d="
M38.104462,140.987762 
	C40.789768,139.658829 43.475071,138.329895 46.532047,136.996826 
	C49.699425,139.662643 52.495136,142.332581 55.654594,145.026398 
	C56.312382,146.172668 56.606422,147.295074 56.535213,148.670868 
	C50.812775,147.881149 45.455585,146.838028 39.912086,145.516327 
	C39.185341,143.821091 38.644901,142.404434 38.104462,140.987762 
z"/>
<path fill="#F5F04F" opacity="1.000000" stroke="none" 
	d="
M71.153206,132.312302 
	C77.409409,131.135666 80.652306,134.893509 82.746216,140.474640 
	C81.389420,140.163986 80.033768,139.685120 78.945038,138.855835 
	C76.333672,136.866760 73.847694,134.713089 71.153206,132.312302 
z"/>
<path fill="#F5F04F" opacity="1.000000" stroke="none" 
	d="
M85.296188,141.393433 
	C88.144814,142.141113 91.058983,143.194595 93.983902,144.623169 
	C91.408485,145.139236 88.822319,145.280212 85.851173,145.442154 
	C85.707191,144.341110 85.534454,143.020172 85.296188,141.393433 
z"/>
<path fill="#A37C28" opacity="1.000000" stroke="none" 
	d="
M82.512695,143.520828 
	C82.484085,143.533768 82.541306,143.507889 82.512695,143.520828 
z"/>
<path fill="#A37C28" opacity="1.000000" stroke="none" 
	d="
M48.399036,124.850723 
	C48.259621,124.950600 48.152527,124.519417 48.156853,124.297409 
	C48.161179,124.075401 48.569218,124.099007 48.765198,124.156807 
	C48.853809,124.419800 48.712902,124.598549 48.399036,124.850723 
z"/>
<path fill="#FBF852" opacity="1.000000" stroke="none" 
	d="
M194.102478,42.315086 
	C194.081024,41.998207 194.244156,41.591892 194.332947,41.392036 
	C196.190231,42.161552 198.259796,42.815414 199.669586,44.160690 
	C203.571640,47.884209 207.298721,51.807636 210.869110,55.851444 
	C211.856720,56.970013 212.054733,58.785736 212.756256,60.605106 
	C209.590469,61.275177 206.283478,61.621738 202.543625,61.963188 
	C202.835312,60.879375 203.559860,59.800667 204.284409,58.721962 
	C203.834595,58.779713 203.384781,58.837467 202.934967,58.895218 
	C202.623352,57.094105 202.311737,55.292988 202.117065,53.195251 
	C200.639297,51.157028 199.044586,49.415432 197.396576,47.303944 
	C197.171890,46.892582 197.000504,46.851116 196.829117,46.809647 
	C196.113831,45.997684 195.398529,45.185719 194.508438,44.128685 
	C194.263733,43.466400 194.193832,43.049183 194.102478,42.315086 
z"/>
<path fill="#FBF852" opacity="1.000000" stroke="none" 
	d="
M192.057953,49.523643 
	C193.748199,49.869598 195.412811,50.565258 197.150360,51.645485 
	C196.978027,53.569275 197.235504,55.638176 196.337891,56.490219 
	C195.532700,57.254513 193.457016,56.680347 191.833740,56.356197 
	C191.827896,53.968277 191.930115,51.920815 192.057953,49.523643 
z"/>
<path fill="#967023" opacity="1.000000" stroke="none" 
	d="
M210.614716,160.863220 
	C214.681122,160.496185 218.374039,160.227478 222.558380,160.389099 
	C223.453186,161.692169 223.710007,163.206268 224.282898,163.337204 
	C229.299240,164.483566 227.577408,167.324020 226.483353,170.408295 
	C225.631119,172.810791 225.472153,175.459183 225.005096,177.998322 
	C222.356903,179.525925 219.459991,180.747772 217.118515,182.652435 
	C213.561996,185.545502 210.698334,184.825851 208.179489,181.623672 
	C203.494476,175.667694 199.604843,169.391785 202.147034,160.795197 
	C204.879166,160.543457 207.560196,160.752502 210.614716,160.863220 
z"/>
<path fill="#F7E04B" opacity="1.000000" stroke="none" 
	d="
M225.175842,178.037262 
	C225.472153,175.459183 225.631119,172.810791 226.483353,170.408295 
	C227.577408,167.324020 229.299240,164.483566 224.282898,163.337204 
	C223.710007,163.206268 223.453186,161.692169 223.001251,160.457016 
	C225.270645,158.964371 227.588608,157.834106 229.906586,156.703857 
	C230.560226,159.653015 232.226807,162.825638 231.636749,165.500427 
	C230.684647,169.816345 228.246277,173.804382 226.064789,178.026321 
	C225.693893,178.121735 225.346588,178.076202 225.175842,178.037262 
z"/>
<path fill="#FEFD53" opacity="1.000000" stroke="none" 
	d="
M161.326355,28.073349 
	C160.996231,27.580452 160.998627,27.131460 161.012146,26.345921 
	C162.812958,26.664280 164.602661,27.319185 166.580353,28.042887 
	C167.040726,27.603035 167.747971,26.927313 168.718414,26.094246 
	C171.054092,25.935026 173.217484,25.582481 175.159073,26.085682 
	C176.070145,26.321806 176.553818,28.206970 177.089569,29.641716 
	C174.881271,30.617180 172.814560,31.295740 170.376709,31.975666 
	C168.562485,31.468361 167.119415,30.959688 165.349411,30.370872 
	C163.901276,29.566236 162.780075,28.841745 161.326355,28.073349 
z"/>
<path fill="#B2822B" opacity="1.000000" stroke="none" 
	d="
M111.488342,208.184464 
	C111.705788,209.789780 111.923233,211.395096 111.833000,213.692978 
	C104.652756,213.964554 97.638153,214.271881 90.938301,212.965256 
	C78.444962,210.528778 67.946083,203.773453 58.174637,195.811020 
	C57.201065,195.017685 55.413792,195.222931 54.004169,194.964722 
	C53.434906,194.478165 52.865646,193.991608 52.371075,193.019012 
	C51.333378,190.227371 50.571419,187.653748 49.048313,185.662292 
	C42.236080,176.755295 36.621433,167.339920 34.981438,155.658051 
	C34.316624,154.538391 33.661846,153.763123 33.006119,152.656708 
	C33.004276,151.883911 33.003387,151.442261 33.233673,150.757477 
	C32.977940,149.340256 32.491032,148.166153 32.004055,146.660294 
	C32.003727,145.886093 32.003464,145.443649 32.003204,145.001221 
	C32.352661,142.177017 32.702118,139.352814 33.076790,136.051361 
	C33.658741,136.165833 34.215481,136.757553 34.893723,138.078033 
	C35.522934,143.574661 35.581917,148.442215 36.615318,153.093262 
	C41.319607,174.265915 52.628910,190.768936 71.935852,201.244659 
	C82.477997,206.964737 93.506004,207.078354 104.663422,203.175842 
	C105.589760,202.851837 106.234451,201.722610 107.313263,201.117798 
	C108.907135,203.573563 110.197746,205.879013 111.488342,208.184464 
z"/>
<path fill="#BE892E" opacity="1.000000" stroke="none" 
	d="
M54.162025,195.264374 
	C55.413792,195.222931 57.201065,195.017685 58.174637,195.811020 
	C67.946083,203.773453 78.444962,210.528778 90.938301,212.965256 
	C97.638153,214.271881 104.652756,213.964554 111.850906,214.098389 
	C112.840858,215.873703 113.505226,217.936172 114.231979,220.358093 
	C109.217766,220.315262 104.053749,220.369980 99.082123,219.418991 
	C87.447174,217.193405 76.658447,212.611649 66.926720,205.853210 
	C62.484856,202.768463 58.507763,199.014481 54.162025,195.264374 
z"/>
<path fill="#BC8C2F" opacity="1.000000" stroke="none" 
	d="
M34.991470,156.002441 
	C36.621433,167.339920 42.236080,176.755295 49.048313,185.662292 
	C50.571419,187.653748 51.333378,190.227371 52.240971,192.764557 
	C42.650650,182.370529 34.881855,170.880508 33.088928,156.248703 
	C34.100933,156.000137 34.546200,156.001282 34.991470,156.002441 
z"/>
<path fill="#B98D2E" opacity="1.000000" stroke="none" 
	d="
M32.004120,146.992065 
	C32.491032,148.166153 32.977940,149.340256 32.979549,150.756958 
	C32.324848,150.999191 32.155453,150.998795 31.986057,150.998413 
	C31.985968,150.558548 31.985880,150.118683 31.991058,149.010925 
	C31.998924,147.892700 32.001522,147.442383 32.004120,146.992065 
z"/>
<path fill="#BC8C2F" opacity="1.000000" stroke="none" 
	d="
M32.004055,146.660294 
	C32.001522,147.442383 31.998924,147.892700 31.992058,148.681015 
	C31.501732,147.841705 31.015678,146.664413 30.759089,145.243134 
	C31.157650,144.999451 31.326744,144.999756 31.749521,145.000641 
	C32.003464,145.443649 32.003727,145.886093 32.004055,146.660294 
z"/>
<path fill="#B98D2E" opacity="1.000000" stroke="none" 
	d="
M34.981438,155.658051 
	C34.546200,156.001282 34.100933,156.000137 33.321358,155.997498 
	C32.987953,155.555557 32.988850,155.115097 32.994743,154.087677 
	C33.002190,153.329773 33.004631,153.158813 33.007072,152.987869 
	C33.661846,153.763123 34.316624,154.538391 34.981438,155.658051 
z"/>
<path fill="#BC8C2F" opacity="1.000000" stroke="none" 
	d="
M33.006119,152.656708 
	C33.004631,153.158813 33.002190,153.329773 32.995655,153.757294 
	C32.511257,153.154922 32.030952,152.295975 31.768353,151.217712 
	C32.155453,150.998795 32.324848,150.999191 32.748375,151.000092 
	C33.003387,151.442261 33.004276,151.883911 33.006119,152.656708 
z"/>
<path fill="#A97D28" opacity="1.000000" stroke="none" 
	d="
M107.009995,200.967499 
	C106.234451,201.722610 105.589760,202.851837 104.663422,203.175842 
	C93.506004,207.078354 82.477997,206.964737 71.935852,201.244659 
	C52.628910,190.768936 41.319607,174.265915 36.615318,153.093262 
	C35.581917,148.442215 35.522934,143.574661 35.023796,138.350616 
	C35.032368,137.894409 35.512554,137.960526 35.754799,137.953186 
	C36.589298,138.784470 37.181553,139.623108 37.939133,140.724762 
	C38.644901,142.404434 39.185341,143.821091 39.763451,145.860565 
	C40.888638,162.844498 47.757530,176.290283 60.075123,187.068558 
	C67.567101,193.624298 75.240227,196.380402 83.964600,189.228729 
	C85.342407,188.099258 87.161423,187.508026 89.030853,186.826050 
	C95.193512,191.645264 101.101753,196.306381 107.009995,200.967499 
z"/>
<path fill="#9F7626" opacity="1.000000" stroke="none" 
	d="
M88.776436,186.667938 
	C87.161423,187.508026 85.342407,188.099258 83.964600,189.228729 
	C75.240227,196.380402 67.567101,193.624298 60.075123,187.068558 
	C47.757530,176.290283 40.888638,162.844498 39.949760,146.139145 
	C45.455585,146.838028 50.812775,147.881149 56.569374,149.018921 
	C63.109779,152.678543 69.072212,156.626862 75.482803,159.613129 
	C77.925125,160.750824 81.395897,159.680756 84.707443,159.780426 
	C85.369011,163.043137 85.721085,166.142273 85.759613,169.892853 
	C82.794495,176.695831 83.735283,182.105362 88.776436,186.667938 
z"/>
<path fill="#FAE44C" opacity="1.000000" stroke="none" 
	d="
M89.030853,186.826050 
	C83.735283,182.105362 82.794495,176.695831 85.706825,170.268921 
	C91.673347,174.857529 97.384132,179.715683 103.078850,184.592575 
	C103.836357,185.241272 104.406357,186.411377 105.242355,186.619156 
	C113.570755,188.689178 111.514221,196.609650 113.759537,201.995026 
	C114.373047,203.466522 112.816269,205.842865 111.871902,207.994217 
	C110.197746,205.879013 108.907135,203.573563 107.313263,201.117798 
	C101.101753,196.306381 95.193512,191.645264 89.030853,186.826050 
z"/>
<path fill="#C79A33" opacity="1.000000" stroke="none" 
	d="
M196.900070,46.884472 
	C197.000504,46.851116 197.171890,46.892582 197.231339,47.018295 
	C197.119400,47.102535 196.971024,46.959297 196.900070,46.884472 
z"/>
</svg>