<svg width="23" height="30" viewBox="0 0 23 30" fill="none" xmlns="http://www.w3.org/2000/svg">
<path fill-rule="evenodd" clip-rule="evenodd" d="M10.5 9C10.1104 9 9.73668 9.15051 9.46116 9.41842C9.18564 9.68633 9.03086 10.0497 9.03086 10.4286V10.5714C7.37191 10.9013 5.881 11.7781 4.81022 13.0535C3.73944 14.329 3.15449 15.925 3.15429 17.5715V23.2858L1.38397 25.183C0.527458 26.1015 1.19739 27.5715 2.47113 27.5715H7.95544C8.21334 28.0059 8.58426 28.3665 9.03092 28.6172C9.47758 28.868 9.98425 29 10.5 29C11.0158 29 11.5224 28.868 11.9691 28.6172C12.4157 28.3665 12.7867 28.0059 13.0446 27.5715H18.5289C19.8026 27.5715 20.4725 26.1001 19.616 25.183L17.8457 23.2858V17.5715C17.8455 15.925 17.2606 14.329 16.1898 13.0535C15.119 11.7781 13.6281 10.9013 11.9691 10.5714V10.4286C11.9691 10.0497 11.8144 9.68633 11.5388 9.41842C11.2633 9.15051 10.8896 9 10.5 9ZM5.358 24.1144L4.78503 24.7258L4.1298 25.4287H16.8702L16.2135 24.7258L15.642 24.113V17.5715C15.642 16.9149 15.509 16.2647 15.2506 15.6581C14.9922 15.0514 14.6134 14.5002 14.1359 14.0359C13.6585 13.5716 13.0916 13.2033 12.4678 12.9521C11.8439 12.7008 11.1753 12.5715 10.5 12.5715C9.82474 12.5715 9.1561 12.7008 8.53224 12.9521C7.90839 13.2033 7.34154 13.5716 6.86406 14.0359C6.38658 14.5002 6.00782 15.0514 5.74941 15.6581C5.491 16.2647 5.358 16.9149 5.358 17.5715V24.1144Z" fill="#0B0B0B" stroke="#FEF9DB" stroke-width="0.5" stroke-linejoin="round"/>
<circle cx="18.5" cy="4.5" r="4.5" fill="#FAE24C"/>
</svg>
