<svg width="317" height="53" viewBox="0 0 317 53" fill="none" xmlns="http://www.w3.org/2000/svg">
<mask id="mask0_0_1" style="mask-type:alpha" maskUnits="userSpaceOnUse" x="0" y="0" width="317" height="53">
<path d="M313.478 6.86891L317 0V52.5H0V10.341L3.52225 15.0621C7.04446 19.7832 14.0889 29.2255 21.1333 31.733C28.1778 34.2404 35.2222 29.8131 42.2667 29.4347C49.3111 29.0562 56.3556 32.7267 63.4 31.3765C70.4445 30.0264 77.4889 23.6555 84.5333 22.7059C91.5778 21.7562 98.6222 26.2278 105.667 24.3556C112.711 22.4835 119.756 14.2678 126.8 16.7723C133.844 19.2769 140.889 32.5017 147.933 37.5284C154.978 42.555 162.022 39.3835 169.067 32.7857C176.111 26.1879 183.156 16.1637 190.2 15.8764C197.244 15.589 204.289 25.0385 211.333 26.4548C218.378 27.8712 225.422 21.2545 232.467 19.4358C239.511 17.6171 246.556 20.5964 253.6 17.5252C260.644 14.454 267.689 5.33221 274.733 8.27183C281.778 11.2115 288.822 26.2125 295.867 26.8441C302.911 27.4757 309.956 13.7378 313.478 6.86891Z" fill="#00CE08" fill-opacity="0.6"/>
</mask>
<g mask="url(#mask0_0_1)">
<path d="M317 0L313.478 6.86891C309.956 13.7378 302.911 27.4757 295.867 26.8441C288.822 26.2125 281.778 11.2115 274.733 8.27183C267.689 5.33221 260.644 14.454 253.6 17.5252C246.556 20.5964 239.511 17.6171 232.467 19.4358C225.422 21.2545 218.378 27.8712 211.333 26.4548C204.289 25.0385 197.244 15.589 190.2 15.8764C183.156 16.1637 176.111 26.1879 169.067 32.7857C162.022 39.3835 154.978 42.555 147.933 37.5284C140.889 32.5017 133.844 19.2769 126.8 16.7723C119.756 14.2678 112.711 22.4835 105.667 24.3556C98.6222 26.2278 91.5778 21.7562 84.5333 22.7059C77.4889 23.6555 70.4445 30.0264 63.4 31.3765C56.3556 32.7267 49.3111 29.0562 42.2667 29.4347C35.2222 29.8131 28.1778 34.2404 21.1333 31.733C14.0889 29.2255 7.04447 19.7832 3.52225 15.0621L0 10.341" stroke="#00CE08" stroke-width="2" stroke-linecap="round"/>
<rect y="-79" width="317" height="131" rx="20" fill="#00CE08"/>
</g>
<path d="M316 1L312.5 7.86891C309 14.7378 302 28.4757 295 27.8441C288 27.2125 281 12.2115 274 9.27183C267 6.33221 260 15.454 253 18.5252C246 21.5964 239 18.6171 232 20.4358C225 22.2545 218 28.8712 211 27.4548C204 26.0385 197 16.589 190 16.8764C183 17.1637 176 27.1879 169 33.7857C162 40.3835 155 43.555 148 38.5284C141 33.5017 134 20.2769 127 17.7723C120 15.2678 113 23.4835 106 25.3556C99 27.2278 92 22.7562 85 23.7059C78 24.6555 71 31.0264 64 32.3765C57 33.7267 50 30.0562 43 30.4347C36 30.8131 29 35.2404 22 32.733C15 30.2255 8.00003 20.7832 4.50003 16.0621L1 11.341" stroke="#00CE08" stroke-width="2" stroke-linecap="round"/>
</svg>
